<svg xmlns="http://www.w3.org/2000/svg" xmlns:xlink="http://www.w3.org/1999/xlink" width="400" zoomAndPan="magnify" viewBox="0 0 300 299.999988" height="400" preserveAspectRatio="xMidYMid meet" version="1.0"><defs><g/><clipPath id="3836fb44d6"><path d="M 143.300781 81.714844 L 253.550781 81.714844 L 253.550781 191.964844 L 143.300781 191.964844 Z M 143.300781 81.714844 " clip-rule="nonzero"/></clipPath></defs><rect x="-30" width="360" fill="#ffffff" y="-29.999999" height="359.999986" fill-opacity="1"/><rect x="-30" width="360" fill="#ffffff" y="-29.999999" height="359.999986" fill-opacity="1"/><g fill="#545454" fill-opacity="1"><g transform="translate(28.532316, 193.499984)"><g><path d="M 103.3125 -114.609375 L 61.6875 -64.046875 L 109.71875 0 L 91.84375 0 L 51.90625 -53.09375 L 30.5 -26.796875 L 30.5 0 L 15.59375 0 L 15.59375 -114.609375 L 30.5 -114.609375 L 30.5 -46.6875 L 85.703125 -114.609375 Z M 103.3125 -114.609375 "/></g></g></g><g fill="#545454" fill-opacity="1"><g transform="translate(130.08663, 193.499984)"><g><path d="M 68 2.28125 C 61.257812 2.28125 54.828125 1.285156 48.703125 -0.703125 C 42.578125 -2.703125 36.972656 -5.523438 31.890625 -9.171875 C 26.804688 -12.828125 22.382812 -17.140625 18.625 -22.109375 C 14.863281 -27.085938 11.957031 -32.550781 9.90625 -38.5 C 7.851562 -44.457031 6.828125 -50.753906 6.828125 -57.390625 C 6.828125 -64.066406 7.851562 -70.394531 9.90625 -76.375 C 11.957031 -82.363281 14.863281 -87.84375 18.625 -92.8125 C 22.382812 -97.789062 26.804688 -102.085938 31.890625 -105.703125 C 36.972656 -109.328125 42.578125 -112.132812 48.703125 -114.125 C 54.828125 -116.125 61.257812 -117.125 68 -117.125 C 74.800781 -117.125 81.257812 -116.125 87.375 -114.125 C 93.5 -112.132812 99.117188 -109.328125 104.234375 -105.703125 C 109.347656 -102.085938 113.785156 -97.789062 117.546875 -92.8125 C 121.316406 -87.84375 124.222656 -82.363281 126.265625 -76.375 C 128.316406 -70.394531 129.34375 -64.066406 129.34375 -57.390625 C 129.34375 -50.753906 128.316406 -44.457031 126.265625 -38.5 C 124.222656 -32.550781 121.316406 -27.085938 117.546875 -22.109375 C 113.785156 -17.140625 109.347656 -12.828125 104.234375 -9.171875 C 99.117188 -5.523438 93.5 -2.703125 87.375 -0.703125 C 81.257812 1.285156 74.800781 2.28125 68 2.28125 Z M 68 -11.546875 C 74.40625 -11.546875 80.414062 -12.695312 86.03125 -15 C 91.65625 -17.300781 96.597656 -20.53125 100.859375 -24.6875 C 105.128906 -28.84375 108.457031 -33.703125 110.84375 -39.265625 C 113.238281 -44.828125 114.4375 -50.867188 114.4375 -57.390625 C 114.4375 -63.898438 113.238281 -69.945312 110.84375 -75.53125 C 108.457031 -81.125 105.128906 -86 100.859375 -90.15625 C 96.597656 -94.320312 91.65625 -97.566406 86.03125 -99.890625 C 80.414062 -102.222656 74.40625 -103.390625 68 -103.390625 C 61.59375 -103.390625 55.59375 -102.222656 50 -99.890625 C 44.414062 -97.566406 39.503906 -94.320312 35.265625 -90.15625 C 31.023438 -86 27.707031 -81.125 25.3125 -75.53125 C 22.925781 -69.945312 21.734375 -63.898438 21.734375 -57.390625 C 21.734375 -50.867188 22.925781 -44.828125 25.3125 -39.265625 C 27.707031 -33.703125 31.023438 -28.84375 35.265625 -24.6875 C 39.503906 -20.53125 44.414062 -17.300781 50 -15 C 55.59375 -12.695312 61.59375 -11.546875 68 -11.546875 Z M 68 -11.546875 "/></g></g></g><g clip-path="url(#3836fb44d6)"><path fill="#ffde59" d="M 253.433594 136.78125 C 253.433594 138.585938 253.34375 140.386719 253.167969 142.179688 C 252.992188 143.976562 252.726562 145.757812 252.375 147.527344 C 252.023438 149.292969 251.585938 151.042969 251.0625 152.765625 C 250.539062 154.492188 249.929688 156.1875 249.242188 157.855469 C 248.550781 159.523438 247.78125 161.148438 246.929688 162.742188 C 246.082031 164.332031 245.152344 165.875 244.152344 167.375 C 243.148438 168.875 242.078125 170.320312 240.933594 171.714844 C 239.789062 173.109375 238.578125 174.445312 237.304688 175.71875 C 236.027344 176.996094 234.695312 178.207031 233.300781 179.347656 C 231.90625 180.492188 230.457031 181.566406 228.960938 182.570312 C 227.460938 183.570312 225.914062 184.496094 224.324219 185.347656 C 222.734375 186.195312 221.105469 186.96875 219.4375 187.65625 C 217.773438 188.347656 216.078125 188.953125 214.351562 189.476562 C 212.625 190 210.878906 190.4375 209.109375 190.789062 C 207.339844 191.144531 205.558594 191.40625 203.761719 191.582031 C 201.96875 191.761719 200.167969 191.847656 198.367188 191.847656 C 196.5625 191.847656 194.761719 191.761719 192.96875 191.582031 C 191.171875 191.40625 189.390625 191.144531 187.625 190.789062 C 185.855469 190.4375 184.105469 190 182.382812 189.476562 C 180.65625 188.953125 178.960938 188.347656 177.292969 187.65625 C 175.625 186.96875 174 186.195312 172.40625 185.347656 C 170.816406 184.496094 169.273438 183.570312 167.773438 182.570312 C 166.273438 181.566406 164.828125 180.492188 163.433594 179.347656 C 162.039062 178.207031 160.703125 176.996094 159.429688 175.71875 C 158.152344 174.445312 156.941406 173.109375 155.800781 171.714844 C 154.65625 170.320312 153.582031 168.875 152.578125 167.375 C 151.578125 165.875 150.652344 164.332031 149.800781 162.742188 C 148.953125 161.148438 148.179688 159.523438 147.492188 157.855469 C 146.800781 156.1875 146.195312 154.492188 145.671875 152.765625 C 145.148438 151.042969 144.710938 149.292969 144.359375 147.527344 C 144.007812 145.757812 143.742188 143.976562 143.566406 142.179688 C 143.386719 140.386719 143.300781 138.585938 143.300781 136.78125 C 143.300781 134.980469 143.386719 133.179688 143.566406 131.386719 C 143.742188 129.589844 144.007812 127.808594 144.359375 126.039062 C 144.710938 124.269531 145.148438 122.523438 145.671875 120.796875 C 146.195312 119.070312 146.800781 117.375 147.492188 115.710938 C 148.179688 114.042969 148.953125 112.414062 149.800781 110.824219 C 150.652344 109.234375 151.578125 107.6875 152.578125 106.1875 C 153.582031 104.691406 154.65625 103.242188 155.800781 101.847656 C 156.941406 100.453125 158.152344 99.121094 159.429688 97.84375 C 160.703125 96.570312 162.039062 95.359375 163.433594 94.214844 C 164.828125 93.070312 166.273438 92 167.773438 90.996094 C 169.273438 89.996094 170.816406 89.070312 172.40625 88.21875 C 174 87.367188 175.625 86.597656 177.292969 85.90625 C 178.960938 85.21875 180.65625 84.609375 182.382812 84.085938 C 184.105469 83.5625 185.855469 83.125 187.625 82.773438 C 189.390625 82.421875 191.171875 82.15625 192.96875 81.980469 C 194.761719 81.804688 196.5625 81.714844 198.367188 81.714844 C 200.167969 81.714844 201.96875 81.804688 203.761719 81.980469 C 205.558594 82.15625 207.339844 82.421875 209.109375 82.773438 C 210.878906 83.125 212.625 83.5625 214.351562 84.085938 C 216.078125 84.609375 217.773438 85.21875 219.4375 85.90625 C 221.105469 86.597656 222.734375 87.367188 224.324219 88.21875 C 225.914062 89.070312 227.460938 89.996094 228.960938 90.996094 C 230.457031 92 231.90625 93.070312 233.300781 94.214844 C 234.695312 95.359375 236.027344 96.570312 237.304688 97.84375 C 238.578125 99.121094 239.789062 100.453125 240.933594 101.847656 C 242.078125 103.242188 243.148438 104.691406 244.152344 106.1875 C 245.152344 107.6875 246.082031 109.234375 246.929688 110.824219 C 247.78125 112.414062 248.550781 114.042969 249.242188 115.710938 C 249.929688 117.375 250.539062 119.070312 251.0625 120.796875 C 251.585938 122.523438 252.023438 124.269531 252.375 126.039062 C 252.726562 127.808594 252.992188 129.589844 253.167969 131.386719 C 253.34375 133.179688 253.433594 134.980469 253.433594 136.78125 Z M 253.433594 136.78125 " fill-opacity="1" fill-rule="nonzero"/></g><path fill="#545454" d="M 198.367188 186.597656 C 170.875 186.597656 148.550781 164.273438 148.550781 136.78125 C 148.550781 109.289062 170.875 86.96875 198.367188 86.96875 C 225.859375 86.96875 248.179688 109.289062 248.179688 136.78125 C 248.179688 164.273438 225.859375 186.597656 198.367188 186.597656 Z M 198.367188 88.199219 C 171.53125 88.199219 149.78125 109.945312 149.78125 136.78125 C 149.78125 163.617188 171.613281 185.367188 198.367188 185.367188 C 225.203125 185.367188 246.949219 163.535156 246.949219 136.78125 C 246.949219 109.945312 225.203125 88.199219 198.367188 88.199219 Z M 198.367188 88.199219 " fill-opacity="1" fill-rule="nonzero"/></svg>