<svg xmlns="http://www.w3.org/2000/svg" xmlns:xlink="http://www.w3.org/1999/xlink" width="400" zoomAndPan="magnify" viewBox="0 0 300 299.999988" height="400" preserveAspectRatio="xMidYMid meet" version="1.0"><defs><g/><clipPath id="03004f26bb"><path d="M 108 1 L 231.679688 1 L 231.679688 122 L 108 122 Z M 108 1 " clip-rule="nonzero"/></clipPath><clipPath id="4a464fe8a6"><rect x="0" width="232" y="0" height="149"/></clipPath><clipPath id="afd11df26e"><path d="M 143.300781 81.8125 L 253.550781 81.8125 L 253.550781 192 L 143.300781 192 Z M 143.300781 81.8125 " clip-rule="nonzero"/></clipPath></defs><rect x="-30" width="360" fill="#ffffff" y="-29.999999" height="359.999986" fill-opacity="1"/><rect x="-30" width="360" fill="#545454" y="-29.999999" height="359.999986" fill-opacity="1"/><g transform="matrix(1, 0, 0, 1, 28, 75)"><g clip-path="url(#4a464fe8a6)"><g fill="#ffffff" fill-opacity="1"><g transform="translate(0.532316, 119.044182)"><g><path d="M 103.3125 -114.609375 L 61.6875 -64.046875 L 109.71875 0 L 91.84375 0 L 51.90625 -53.09375 L 30.5 -26.796875 L 30.5 0 L 15.59375 0 L 15.59375 -114.609375 L 30.5 -114.609375 L 30.5 -46.6875 L 85.703125 -114.609375 Z M 103.3125 -114.609375 "/></g></g></g><g clip-path="url(#03004f26bb)"><g fill="#ffffff" fill-opacity="1"><g transform="translate(102.093749, 119.044182)"><g><path d="M 68 2.28125 C 61.257812 2.28125 54.828125 1.285156 48.703125 -0.703125 C 42.578125 -2.703125 36.972656 -5.523438 31.890625 -9.171875 C 26.804688 -12.828125 22.382812 -17.140625 18.625 -22.109375 C 14.863281 -27.085938 11.957031 -32.550781 9.90625 -38.5 C 7.851562 -44.457031 6.828125 -50.753906 6.828125 -57.390625 C 6.828125 -64.066406 7.851562 -70.394531 9.90625 -76.375 C 11.957031 -82.363281 14.863281 -87.84375 18.625 -92.8125 C 22.382812 -97.789062 26.804688 -102.085938 31.890625 -105.703125 C 36.972656 -109.328125 42.578125 -112.132812 48.703125 -114.125 C 54.828125 -116.125 61.257812 -117.125 68 -117.125 C 74.800781 -117.125 81.257812 -116.125 87.375 -114.125 C 93.5 -112.132812 99.117188 -109.328125 104.234375 -105.703125 C 109.347656 -102.085938 113.785156 -97.789062 117.546875 -92.8125 C 121.316406 -87.84375 124.222656 -82.363281 126.265625 -76.375 C 128.316406 -70.394531 129.34375 -64.066406 129.34375 -57.390625 C 129.34375 -50.753906 128.316406 -44.457031 126.265625 -38.5 C 124.222656 -32.550781 121.316406 -27.085938 117.546875 -22.109375 C 113.785156 -17.140625 109.347656 -12.828125 104.234375 -9.171875 C 99.117188 -5.523438 93.5 -2.703125 87.375 -0.703125 C 81.257812 1.285156 74.800781 2.28125 68 2.28125 Z M 68 -11.546875 C 74.40625 -11.546875 80.414062 -12.695312 86.03125 -15 C 91.65625 -17.300781 96.597656 -20.53125 100.859375 -24.6875 C 105.128906 -28.84375 108.457031 -33.703125 110.84375 -39.265625 C 113.238281 -44.828125 114.4375 -50.867188 114.4375 -57.390625 C 114.4375 -63.898438 113.238281 -69.945312 110.84375 -75.53125 C 108.457031 -81.125 105.128906 -86 100.859375 -90.15625 C 96.597656 -94.320312 91.65625 -97.566406 86.03125 -99.890625 C 80.414062 -102.222656 74.40625 -103.390625 68 -103.390625 C 61.59375 -103.390625 55.59375 -102.222656 50 -99.890625 C 44.414062 -97.566406 39.503906 -94.320312 35.265625 -90.15625 C 31.023438 -86 27.707031 -81.125 25.3125 -75.53125 C 22.925781 -69.945312 21.734375 -63.898438 21.734375 -57.390625 C 21.734375 -50.867188 22.925781 -44.828125 25.3125 -39.265625 C 27.707031 -33.703125 31.023438 -28.84375 35.265625 -24.6875 C 39.503906 -20.53125 44.414062 -17.300781 50 -15 C 55.59375 -12.695312 61.59375 -11.546875 68 -11.546875 Z M 68 -11.546875 "/></g></g></g></g></g></g><g clip-path="url(#afd11df26e)"><path fill="#ffde59" d="M 253.433594 136.878906 C 253.433594 138.683594 253.34375 140.480469 253.167969 142.277344 C 252.992188 144.070312 252.726562 145.851562 252.375 147.621094 C 252.023438 149.390625 251.585938 151.136719 251.0625 152.863281 C 250.539062 154.589844 249.929688 156.285156 249.242188 157.953125 C 248.550781 159.617188 247.78125 161.246094 246.929688 162.835938 C 246.082031 164.429688 245.152344 165.972656 244.152344 167.472656 C 243.148438 168.972656 242.078125 170.417969 240.933594 171.8125 C 239.789062 173.207031 238.578125 174.542969 237.304688 175.816406 C 236.027344 177.09375 234.695312 178.300781 233.300781 179.445312 C 231.90625 180.589844 230.457031 181.664062 228.960938 182.664062 C 227.460938 183.667969 225.914062 184.59375 224.324219 185.445312 C 222.734375 186.292969 221.105469 187.0625 219.4375 187.753906 C 217.773438 188.445312 216.078125 189.050781 214.351562 189.574219 C 212.625 190.097656 210.878906 190.535156 209.109375 190.886719 C 207.339844 191.238281 205.558594 191.503906 203.761719 191.679688 C 201.96875 191.855469 200.167969 191.945312 198.367188 191.945312 C 196.5625 191.945312 194.761719 191.855469 192.96875 191.679688 C 191.171875 191.503906 189.390625 191.238281 187.625 190.886719 C 185.855469 190.535156 184.105469 190.097656 182.382812 189.574219 C 180.65625 189.050781 178.960938 188.445312 177.292969 187.753906 C 175.625 187.0625 174 186.292969 172.40625 185.445312 C 170.816406 184.59375 169.273438 183.667969 167.773438 182.664062 C 166.273438 181.664062 164.828125 180.589844 163.433594 179.445312 C 162.039062 178.300781 160.703125 177.09375 159.429688 175.816406 C 158.152344 174.542969 156.941406 173.207031 155.800781 171.8125 C 154.65625 170.417969 153.582031 168.972656 152.578125 167.472656 C 151.578125 165.972656 150.652344 164.429688 149.800781 162.835938 C 148.953125 161.246094 148.179688 159.617188 147.492188 157.953125 C 146.800781 156.285156 146.195312 154.589844 145.671875 152.863281 C 145.148438 151.136719 144.710938 149.390625 144.359375 147.621094 C 144.007812 145.851562 143.742188 144.070312 143.566406 142.277344 C 143.386719 140.480469 143.300781 138.683594 143.300781 136.878906 C 143.300781 135.074219 143.386719 133.277344 143.566406 131.480469 C 143.742188 129.6875 144.007812 127.90625 144.359375 126.136719 C 144.710938 124.367188 145.148438 122.621094 145.671875 120.894531 C 146.195312 119.167969 146.800781 117.472656 147.492188 115.804688 C 148.179688 114.140625 148.953125 112.511719 149.800781 110.921875 C 150.652344 109.332031 151.578125 107.785156 152.578125 106.285156 C 153.582031 104.785156 154.65625 103.339844 155.800781 101.945312 C 156.941406 100.550781 158.152344 99.214844 159.429688 97.941406 C 160.703125 96.667969 162.039062 95.457031 163.433594 94.3125 C 164.828125 93.167969 166.273438 92.09375 167.773438 91.09375 C 169.273438 90.089844 170.816406 89.164062 172.40625 88.316406 C 174 87.464844 175.625 86.695312 177.292969 86.003906 C 178.960938 85.316406 180.65625 84.707031 182.382812 84.183594 C 184.105469 83.660156 185.855469 83.222656 187.625 82.871094 C 189.390625 82.519531 191.171875 82.253906 192.96875 82.078125 C 194.761719 81.902344 196.5625 81.8125 198.367188 81.8125 C 200.167969 81.8125 201.96875 81.902344 203.761719 82.078125 C 205.558594 82.253906 207.339844 82.519531 209.109375 82.871094 C 210.878906 83.222656 212.625 83.660156 214.351562 84.183594 C 216.078125 84.707031 217.773438 85.316406 219.4375 86.003906 C 221.105469 86.695312 222.734375 87.464844 224.324219 88.316406 C 225.914062 89.164062 227.460938 90.089844 228.960938 91.09375 C 230.457031 92.09375 231.90625 93.167969 233.300781 94.3125 C 234.695312 95.457031 236.027344 96.667969 237.304688 97.941406 C 238.578125 99.214844 239.789062 100.550781 240.933594 101.945312 C 242.078125 103.339844 243.148438 104.785156 244.152344 106.285156 C 245.152344 107.785156 246.082031 109.332031 246.929688 110.921875 C 247.78125 112.511719 248.550781 114.140625 249.242188 115.804688 C 249.929688 117.472656 250.539062 119.167969 251.0625 120.894531 C 251.585938 122.621094 252.023438 124.367188 252.375 126.136719 C 252.726562 127.90625 252.992188 129.6875 253.167969 131.480469 C 253.34375 133.277344 253.433594 135.074219 253.433594 136.878906 Z M 253.433594 136.878906 " fill-opacity="1" fill-rule="nonzero"/></g><path fill="#ffffff" d="M 198.367188 186.695312 C 170.875 186.695312 148.550781 164.371094 148.550781 136.878906 C 148.550781 109.386719 170.875 87.066406 198.367188 87.066406 C 225.859375 87.066406 248.179688 109.386719 248.179688 136.878906 C 248.179688 164.371094 225.859375 186.695312 198.367188 186.695312 Z M 198.367188 88.296875 C 171.53125 88.296875 149.78125 110.042969 149.78125 136.878906 C 149.78125 163.714844 171.613281 185.460938 198.367188 185.460938 C 225.203125 185.460938 246.949219 163.632812 246.949219 136.878906 C 246.949219 110.042969 225.203125 88.296875 198.367188 88.296875 Z M 198.367188 88.296875 " fill-opacity="1" fill-rule="nonzero"/></svg>