<svg xmlns="http://www.w3.org/2000/svg" xmlns:xlink="http://www.w3.org/1999/xlink" width="2000" zoomAndPan="magnify" viewBox="0 0 1500 1499.999933" height="2000" preserveAspectRatio="xMidYMid meet" version="1.0"><defs><g/><clipPath id="dd05659017"><path d="M 456.871094 590.910156 L 660.613281 590.910156 L 660.613281 796.242188 L 456.871094 796.242188 Z M 456.871094 590.910156 " clip-rule="nonzero"/></clipPath><clipPath id="3358065932"><path d="M 471.871094 590.910156 L 645.613281 590.910156 C 649.59375 590.910156 653.410156 592.488281 656.222656 595.300781 C 659.035156 598.117188 660.613281 601.929688 660.613281 605.910156 L 660.613281 781.128906 C 660.613281 785.105469 659.035156 788.921875 656.222656 791.734375 C 653.410156 794.546875 649.59375 796.128906 645.613281 796.128906 L 471.871094 796.128906 C 467.894531 796.128906 464.078125 794.546875 461.265625 791.734375 C 458.453125 788.921875 456.871094 785.105469 456.871094 781.128906 L 456.871094 605.910156 C 456.871094 601.929688 458.453125 598.117188 461.265625 595.300781 C 464.078125 592.488281 467.894531 590.910156 471.871094 590.910156 Z M 471.871094 590.910156 " clip-rule="nonzero"/></clipPath><clipPath id="7691202997"><path d="M 0.871094 0.910156 L 204.613281 0.910156 L 204.613281 206.242188 L 0.871094 206.242188 Z M 0.871094 0.910156 " clip-rule="nonzero"/></clipPath><clipPath id="ba1f184de9"><path d="M 15.871094 0.910156 L 189.613281 0.910156 C 193.59375 0.910156 197.410156 2.488281 200.222656 5.300781 C 203.035156 8.117188 204.613281 11.929688 204.613281 15.910156 L 204.613281 191.128906 C 204.613281 195.105469 203.035156 198.921875 200.222656 201.734375 C 197.410156 204.546875 193.59375 206.128906 189.613281 206.128906 L 15.871094 206.128906 C 11.894531 206.128906 8.078125 204.546875 5.265625 201.734375 C 2.453125 198.921875 0.871094 195.105469 0.871094 191.128906 L 0.871094 15.910156 C 0.871094 11.929688 2.453125 8.117188 5.265625 5.300781 C 8.078125 2.488281 11.894531 0.910156 15.871094 0.910156 Z M 15.871094 0.910156 " clip-rule="nonzero"/></clipPath><clipPath id="1a67e57089"><rect x="0" width="205" y="0" height="207"/></clipPath><clipPath id="1d9417f04b"><path d="M 544.265625 641.078125 L 649.265625 641.078125 L 649.265625 746 L 544.265625 746 Z M 544.265625 641.078125 " clip-rule="nonzero"/></clipPath></defs><rect x="-150" width="1800" fill="#ffffff" y="-149.999993" height="1799.99992" fill-opacity="1"/><rect x="-150" width="1800" fill="#ffffff" y="-149.999993" height="1799.99992" fill-opacity="1"/><g clip-path="url(#dd05659017)"><g clip-path="url(#3358065932)"><g transform="matrix(1, 0, 0, 1, 456, 590)"><g clip-path="url(#1a67e57089)"><g clip-path="url(#7691202997)"><g clip-path="url(#ba1f184de9)"><path fill="#545454" d="M 0.871094 0.910156 L 204.613281 0.910156 L 204.613281 206.242188 L 0.871094 206.242188 Z M 0.871094 0.910156 " fill-opacity="1" fill-rule="nonzero"/></g></g></g></g></g></g><g clip-path="url(#1d9417f04b)"><path fill="#c4922a" d="M 619.085938 693.308594 L 618.207031 693.308594 L 617.066406 692.167969 L 617.066406 690.183594 L 616.652344 690.183594 L 616.652344 692.167969 L 615.507812 693.308594 L 614.632812 693.308594 L 614.632812 693.722656 L 615.515625 693.722656 L 616.652344 694.863281 L 616.652344 696.847656 L 617.066406 696.847656 L 617.066406 694.863281 L 618.210938 693.722656 L 619.085938 693.722656 Z M 616.652344 694.273438 L 616.101562 693.722656 L 616.652344 693.722656 Z M 616.652344 693.308594 L 616.097656 693.308594 L 616.652344 692.757812 Z M 617.066406 692.757812 L 617.617188 693.308594 L 617.066406 693.308594 Z M 617.066406 694.273438 L 617.066406 693.722656 L 617.621094 693.722656 Z M 612.953125 659.785156 L 613.832031 659.785156 L 614.972656 660.921875 L 614.972656 662.90625 L 615.386719 662.90625 L 615.386719 660.921875 L 616.53125 659.785156 L 617.40625 659.785156 L 617.40625 659.367188 L 616.523438 659.367188 L 615.386719 658.230469 L 615.386719 656.246094 L 614.972656 656.246094 L 614.972656 658.230469 L 613.828125 659.367188 L 612.953125 659.367188 Z M 615.386719 658.816406 L 615.9375 659.367188 L 615.386719 659.367188 Z M 615.386719 659.785156 L 615.941406 659.785156 L 615.386719 660.335938 Z M 614.972656 660.332031 L 614.421875 659.785156 L 614.972656 659.785156 Z M 614.972656 658.816406 L 614.972656 659.367188 L 614.417969 659.367188 Z M 616.273438 672.613281 L 617.40625 672.613281 L 617.40625 673.238281 L 616.273438 673.238281 L 616.273438 674.375 L 615.648438 674.375 L 615.648438 673.238281 L 614.511719 673.238281 L 614.511719 672.613281 L 615.648438 672.613281 L 615.648438 671.480469 L 616.273438 671.480469 Z M 616.296875 666.675781 L 617.707031 666.675781 L 617.707031 665.265625 L 618.539062 665.265625 L 618.539062 666.675781 L 619.949219 666.675781 L 619.949219 667.507812 L 618.539062 667.507812 L 618.539062 668.921875 L 617.707031 668.921875 L 617.707031 667.507812 L 616.296875 667.507812 Z M 614.464844 705.09375 L 615.597656 705.09375 L 615.597656 705.71875 L 614.464844 705.71875 L 614.464844 706.851562 L 613.839844 706.851562 L 613.839844 705.71875 L 612.703125 705.71875 L 612.703125 705.09375 L 613.839844 705.09375 L 613.839844 703.957031 L 614.464844 703.957031 Z M 618.707031 731.054688 L 617.292969 731.515625 L 618.167969 732.722656 L 617.832031 732.96875 L 616.957031 731.761719 L 616.078125 732.96875 L 615.742188 732.722656 L 616.617188 731.515625 L 615.203125 731.054688 L 615.332031 730.660156 L 616.746094 731.121094 L 616.746094 729.632812 L 617.164062 729.632812 L 617.164062 731.121094 L 618.582031 730.660156 Z M 613.214844 727.566406 L 615.292969 727.582031 L 614.667969 727.101562 L 614.917969 726.769531 L 615.703125 727.371094 L 615.703125 726.460938 L 616.117188 726.460938 L 616.117188 727.378906 L 616.914062 726.785156 L 617.164062 727.117188 L 616.53125 727.589844 L 618.609375 727.601562 L 618.609375 728.019531 L 616.527344 728.003906 L 617.15625 728.488281 L 616.902344 728.816406 L 616.121094 728.214844 L 616.121094 729.125 L 615.703125 729.125 L 615.703125 728.207031 L 614.910156 728.804688 L 614.660156 728.46875 L 615.292969 727.996094 L 613.210938 727.984375 Z M 610.597656 738.300781 L 611.8125 739.515625 L 613.023438 738.300781 L 611.8125 737.089844 Z M 611.8125 738.925781 L 611.1875 738.300781 L 611.8125 737.679688 L 612.433594 738.300781 Z M 611.941406 649.59375 L 613.121094 649.59375 L 613.121094 650.011719 L 611.941406 650.011719 Z M 611.777344 649.449219 L 611.484375 649.15625 L 612.316406 648.324219 L 612.613281 648.617188 Z M 611.265625 649.171875 L 610.851562 649.171875 L 610.851562 647.992188 L 611.265625 647.992188 Z M 610.414062 649.628906 L 609.578125 648.796875 L 609.875 648.503906 L 610.707031 649.335938 Z M 610.425781 650.261719 L 609.25 650.261719 L 609.25 649.847656 L 610.425781 649.847656 Z M 610.886719 650.703125 L 610.050781 651.535156 L 609.757812 651.242188 L 610.589844 650.40625 Z M 611.105469 650.6875 L 611.519531 650.6875 L 611.519531 651.867188 L 611.105469 651.867188 Z M 611.664062 650.523438 L 611.957031 650.226562 L 612.792969 651.0625 L 612.496094 651.355469 Z M 578.765625 693.722656 L 578.765625 693.308594 L 577.890625 693.308594 L 576.746094 692.167969 L 576.746094 690.183594 L 576.332031 690.183594 L 576.332031 692.167969 L 575.191406 693.308594 L 574.3125 693.308594 L 574.3125 693.722656 L 575.1875 693.722656 L 576.332031 694.863281 L 576.332031 696.847656 L 576.746094 696.847656 L 576.746094 694.863281 L 577.882812 693.722656 Z M 576.332031 694.273438 L 575.777344 693.722656 L 576.332031 693.722656 Z M 576.332031 693.308594 L 575.78125 693.308594 L 576.332031 692.757812 Z M 576.746094 694.273438 L 576.746094 693.722656 L 577.296875 693.722656 Z M 576.746094 693.308594 L 576.746094 692.757812 L 577.300781 693.308594 Z M 578.011719 660.921875 L 578.011719 662.90625 L 578.425781 662.90625 L 578.425781 660.921875 L 579.566406 659.785156 L 580.445312 659.785156 L 580.445312 659.367188 L 579.570312 659.367188 L 578.425781 658.230469 L 578.425781 656.246094 L 578.011719 656.246094 L 578.011719 658.230469 L 576.875 659.367188 L 575.992188 659.367188 L 575.992188 659.785156 L 576.867188 659.785156 Z M 578.425781 658.816406 L 578.980469 659.367188 L 578.425781 659.367188 Z M 578.425781 659.785156 L 578.976562 659.785156 L 578.425781 660.332031 Z M 578.011719 658.816406 L 578.011719 659.367188 L 577.460938 659.367188 Z M 578.011719 659.785156 L 578.011719 660.335938 L 577.457031 659.785156 Z M 577.117188 673.226562 L 575.984375 673.191406 L 576.003906 672.566406 L 577.136719 672.605469 L 577.171875 671.46875 L 577.796875 671.492188 L 577.761719 672.625 L 578.894531 672.660156 L 578.875 673.285156 L 577.738281 673.25 L 577.703125 674.382812 L 577.078125 674.363281 Z M 577.101562 667.507812 L 575.691406 667.507812 L 575.691406 668.921875 L 574.859375 668.921875 L 574.859375 667.507812 L 573.449219 667.507812 L 573.449219 666.675781 L 574.859375 666.675781 L 574.859375 665.265625 L 575.691406 665.265625 L 575.691406 666.675781 L 577.101562 666.675781 Z M 579.558594 706.851562 L 578.933594 706.851562 L 578.933594 705.71875 L 577.800781 705.71875 L 577.800781 705.09375 L 578.933594 705.09375 L 578.933594 703.957031 L 579.558594 703.957031 L 579.558594 705.09375 L 580.695312 705.09375 L 580.695312 705.71875 L 579.558594 705.71875 Z M 578.195312 731.054688 L 576.78125 731.515625 L 577.65625 732.722656 L 577.320312 732.96875 L 576.441406 731.761719 L 575.566406 732.96875 L 575.230469 732.722656 L 576.105469 731.515625 L 574.691406 731.054688 L 574.816406 730.660156 L 576.234375 731.121094 L 576.234375 729.632812 L 576.652344 729.632812 L 576.652344 731.121094 L 578.066406 730.660156 Z M 580.183594 727.566406 L 580.1875 727.984375 L 578.105469 727.996094 L 578.738281 728.46875 L 578.488281 728.804688 L 577.695312 728.207031 L 577.695312 729.125 L 577.277344 729.125 L 577.277344 728.214844 L 576.496094 728.816406 L 576.242188 728.488281 L 576.867188 728.003906 L 574.789062 728.019531 L 574.789062 727.605469 L 576.867188 727.589844 L 576.234375 727.117188 L 576.484375 726.785156 L 577.28125 727.378906 L 577.28125 726.464844 L 577.695312 726.464844 L 577.695312 727.371094 L 578.480469 726.769531 L 578.730469 727.101562 L 578.105469 727.582031 Z M 580.375 738.300781 L 581.585938 739.515625 L 582.800781 738.300781 L 581.585938 737.089844 Z M 581.585938 738.925781 L 580.964844 738.300781 L 581.585938 737.679688 L 582.210938 738.300781 Z M 581.457031 650.011719 L 580.277344 650.011719 L 580.277344 649.59375 L 581.457031 649.59375 Z M 581.621094 649.449219 L 580.785156 648.617188 L 581.082031 648.324219 L 581.914062 649.15625 Z M 582.546875 649.171875 L 582.132812 649.171875 L 582.132812 647.992188 L 582.546875 647.992188 Z M 582.984375 649.628906 L 582.691406 649.335938 L 583.523438 648.503906 L 583.820312 648.796875 Z M 582.972656 649.847656 L 584.148438 649.847656 L 584.148438 650.261719 L 582.972656 650.261719 Z M 582.808594 650.40625 L 583.640625 651.242188 L 583.347656 651.535156 L 582.511719 650.703125 Z M 581.878906 650.6875 L 582.292969 650.6875 L 582.292969 651.867188 L 581.878906 651.867188 Z M 581.441406 650.230469 L 581.734375 650.523438 L 580.902344 651.355469 L 580.605469 651.0625 Z M 633.777344 656.4375 C 623.875 646.535156 610.707031 641.078125 596.699219 641.078125 C 582.695312 641.078125 569.527344 646.535156 559.621094 656.4375 C 549.71875 666.34375 544.265625 679.507812 544.265625 693.515625 C 544.265625 707.523438 549.71875 720.691406 559.621094 730.59375 C 569.527344 740.496094 582.695312 745.949219 596.699219 745.949219 C 610.707031 745.949219 623.875 740.496094 633.777344 730.59375 C 643.679688 720.691406 649.132812 707.523438 649.132812 693.515625 C 649.132812 679.507812 643.679688 666.339844 633.777344 656.4375 Z M 645.417969 689.269531 C 645.566406 689.269531 645.847656 689.671875 645.847656 690.308594 L 645.847656 691.304688 C 645.847656 691.875 645.378906 692.34375 644.804688 692.34375 L 629.890625 692.34375 C 628.859375 692.34375 628.019531 693.125 628.019531 694.089844 C 628.019531 695.050781 628.859375 695.835938 629.890625 695.835938 L 630.738281 695.835938 C 631.3125 695.835938 631.78125 696.300781 631.78125 696.875 L 631.78125 697.871094 C 631.78125 698.445312 631.3125 698.910156 630.738281 698.910156 L 620.550781 698.910156 C 619.976562 698.910156 619.507812 698.445312 619.507812 697.871094 L 619.507812 696.875 C 619.507812 696.300781 619.976562 695.835938 620.550781 695.835938 L 623.070312 695.835938 C 624.101562 695.835938 624.945312 695.050781 624.945312 694.089844 C 624.945312 693.125 624.101562 692.34375 623.070312 692.34375 L 622.585938 692.34375 C 622.015625 692.34375 621.546875 691.875 621.546875 691.304688 L 621.546875 690.308594 C 621.546875 689.734375 622.015625 689.269531 622.585938 689.269531 L 628.023438 689.269531 C 629.058594 689.269531 629.898438 688.484375 629.898438 687.523438 C 629.898438 686.558594 629.058594 685.777344 628.023438 685.777344 L 618.261719 685.777344 C 617.6875 685.777344 617.222656 685.308594 617.222656 684.734375 L 617.222656 683.742188 C 617.222656 683.167969 617.6875 682.699219 618.261719 682.699219 L 618.417969 682.699219 C 619.453125 682.699219 620.292969 681.917969 620.292969 680.953125 C 620.292969 679.992188 619.453125 679.207031 618.417969 679.207031 L 618.320312 679.207031 C 617.75 679.207031 617.28125 678.742188 617.28125 678.167969 L 617.28125 677.171875 C 617.28125 676.601562 617.75 676.132812 618.320312 676.132812 L 625.023438 676.132812 C 625.597656 676.132812 626.0625 676.601562 626.0625 677.171875 L 626.0625 678.167969 C 626.0625 678.742188 625.644531 679.207031 625.132812 679.207031 C 624.160156 679.207031 623.367188 679.992188 623.367188 680.953125 C 623.367188 681.917969 624.207031 682.699219 625.238281 682.699219 L 634.226562 682.699219 C 634.800781 682.699219 635.269531 683.167969 635.269531 683.742188 L 635.269531 684.734375 C 635.269531 685.300781 634.933594 685.777344 634.535156 685.777344 C 633.675781 685.777344 632.972656 686.558594 632.972656 687.523438 C 632.972656 688.484375 633.8125 689.269531 634.847656 689.269531 L 639.210938 689.269531 C 640.242188 689.269531 641.082031 688.484375 641.082031 687.523438 C 641.082031 686.558594 640.242188 685.777344 639.210938 685.777344 L 639.175781 685.777344 C 638.601562 685.777344 638.132812 685.308594 638.132812 684.734375 L 638.132812 683.742188 C 638.132812 683.167969 638.601562 682.699219 639.175781 682.699219 L 646.066406 682.699219 C 646.640625 682.699219 647.105469 683.167969 647.105469 683.742188 L 647.105469 684.734375 C 647.105469 685.308594 646.640625 685.777344 646.066406 685.777344 L 646.03125 685.777344 C 645 685.777344 644.160156 686.558594 644.160156 687.523438 C 644.160156 688.5 644.710938 689.269531 645.417969 689.269531 Z M 646.296875 679.253906 L 641.972656 679.253906 C 641.398438 679.253906 640.933594 678.789062 640.933594 678.214844 L 640.933594 677.21875 C 640.933594 676.644531 641.398438 676.179688 641.972656 676.179688 L 645.304688 676.179688 C 645.664062 677.191406 645.996094 678.214844 646.296875 679.253906 Z M 636.6875 676.132812 L 637.171875 676.132812 C 637.746094 676.132812 638.210938 676.601562 638.210938 677.171875 L 638.210938 678.167969 C 638.210938 678.742188 637.746094 679.207031 637.171875 679.207031 L 629.984375 679.207031 C 629.410156 679.207031 628.941406 678.742188 628.941406 678.167969 L 628.941406 677.171875 C 628.941406 676.601562 629.382812 676.132812 629.925781 676.132812 C 630.925781 676.132812 631.738281 675.351562 631.738281 674.386719 C 631.738281 673.425781 630.898438 672.640625 629.867188 672.640625 L 621.8125 672.640625 C 621.238281 672.640625 620.773438 672.175781 620.773438 671.601562 L 620.773438 670.605469 C 620.773438 670.03125 621.238281 669.566406 621.8125 669.566406 L 638.882812 669.566406 C 639.914062 669.566406 640.753906 668.78125 640.753906 667.820312 C 640.753906 666.855469 639.914062 666.074219 638.882812 666.074219 L 636.351562 666.074219 C 635.777344 666.074219 635.3125 665.605469 635.3125 665.03125 L 635.3125 664.039062 C 635.3125 663.464844 635.777344 662.996094 636.351562 662.996094 L 638.285156 662.996094 C 640.480469 665.984375 642.367188 669.214844 643.886719 672.640625 L 636.6875 672.640625 C 635.65625 672.640625 634.816406 673.425781 634.816406 674.386719 C 634.816406 675.351562 635.65625 676.132812 636.6875 676.132812 Z M 635.492188 659.523438 L 629.886719 659.523438 C 628.855469 659.523438 628.015625 660.308594 628.015625 661.269531 C 628.015625 662.230469 628.855469 663.015625 629.886719 663.015625 L 630.957031 663.015625 C 631.53125 663.015625 631.996094 663.480469 631.996094 664.054688 L 631.996094 665.050781 C 631.996094 665.625 631.53125 666.089844 630.957031 666.089844 L 622.800781 666.089844 C 622.226562 666.089844 621.761719 665.625 621.761719 665.050781 L 621.761719 664.054688 C 621.761719 663.480469 622.226562 663.015625 622.800781 663.015625 L 623.066406 663.015625 C 624.097656 663.015625 624.9375 662.230469 624.9375 661.269531 C 624.9375 660.308594 624.097656 659.523438 623.066406 659.523438 L 621.332031 659.523438 C 620.757812 659.523438 620.292969 659.058594 620.292969 658.484375 L 620.292969 657.488281 C 620.292969 656.914062 620.757812 656.449219 621.332031 656.449219 L 632.5625 656.449219 C 633.578125 657.433594 634.554688 658.457031 635.492188 659.523438 Z M 616.191406 646.277344 L 612.054688 646.277344 C 611.480469 646.277344 611.011719 645.8125 611.011719 645.238281 L 611.011719 644.242188 C 611.011719 644.140625 611.03125 644.042969 611.0625 643.949219 C 615.425781 645.214844 619.554688 647.042969 623.363281 649.347656 C 623.480469 649.441406 623.609375 649.523438 623.75 649.589844 C 625.367188 650.589844 626.929688 651.675781 628.425781 652.847656 L 616.1875 652.847656 C 615.613281 652.847656 615.148438 652.378906 615.148438 651.804688 L 615.148438 650.8125 C 615.148438 650.238281 615.613281 649.769531 616.191406 649.769531 C 617.222656 649.769531 618.0625 648.988281 618.0625 648.023438 C 618.0625 647.0625 617.222656 646.277344 616.191406 646.277344 Z M 582.386719 644.242188 L 582.386719 645.238281 C 582.386719 645.8125 581.917969 646.277344 581.34375 646.277344 L 577.207031 646.277344 C 576.175781 646.277344 575.335938 647.0625 575.335938 648.023438 C 575.335938 648.988281 576.175781 649.769531 577.210938 649.769531 C 577.785156 649.769531 578.25 650.238281 578.25 650.8125 L 578.25 651.804688 C 578.25 652.378906 577.785156 652.847656 577.210938 652.847656 L 564.972656 652.847656 C 566.46875 651.675781 568.03125 650.589844 569.652344 649.585938 C 569.789062 649.523438 569.917969 649.441406 570.035156 649.351562 C 573.84375 647.042969 577.972656 645.214844 582.335938 643.949219 C 582.367188 644.042969 582.386719 644.140625 582.386719 644.242188 Z M 560.835938 656.449219 L 572.066406 656.449219 C 572.640625 656.449219 573.105469 656.914062 573.105469 657.488281 L 573.105469 658.484375 C 573.105469 659.058594 572.640625 659.523438 572.066406 659.523438 L 570.332031 659.523438 C 569.300781 659.523438 568.460938 660.304688 568.460938 661.269531 C 568.460938 662.230469 569.300781 663.015625 570.332031 663.015625 L 570.597656 663.015625 C 571.171875 663.015625 571.636719 663.480469 571.636719 664.054688 L 571.636719 665.050781 C 571.636719 665.625 571.171875 666.089844 570.597656 666.089844 L 562.441406 666.089844 C 561.867188 666.089844 561.402344 665.625 561.402344 665.050781 L 561.402344 664.054688 C 561.402344 663.480469 561.867188 663.015625 562.441406 663.015625 L 563.511719 663.015625 C 564.542969 663.015625 565.386719 662.230469 565.386719 661.269531 C 565.386719 660.304688 564.542969 659.523438 563.511719 659.523438 L 557.910156 659.523438 C 558.84375 658.457031 559.820312 657.433594 560.835938 656.449219 Z M 554.515625 669.566406 L 571.585938 669.566406 C 572.160156 669.566406 572.625 670.03125 572.625 670.605469 L 572.625 671.601562 C 572.625 672.175781 572.160156 672.640625 571.585938 672.640625 L 563.53125 672.640625 C 562.5 672.640625 561.660156 673.425781 561.660156 674.386719 C 561.660156 675.351562 562.472656 676.132812 563.472656 676.132812 C 564.015625 676.132812 564.457031 676.601562 564.457031 677.171875 L 564.457031 678.167969 C 564.457031 678.742188 563.988281 679.207031 563.414062 679.207031 L 556.226562 679.207031 C 555.652344 679.207031 555.1875 678.742188 555.1875 678.167969 L 555.1875 677.171875 C 555.1875 676.601562 555.652344 676.132812 556.226562 676.132812 L 556.710938 676.132812 C 557.742188 676.132812 558.582031 675.351562 558.582031 674.386719 C 558.582031 673.425781 557.742188 672.640625 556.710938 672.640625 L 549.511719 672.640625 C 551.035156 669.214844 552.917969 665.984375 555.113281 662.996094 L 557.046875 662.996094 C 557.621094 662.996094 558.085938 663.464844 558.085938 664.039062 L 558.085938 665.03125 C 558.085938 665.605469 557.621094 666.074219 557.046875 666.074219 L 554.515625 666.074219 C 553.484375 666.074219 552.644531 666.855469 552.644531 667.820312 C 552.644531 668.78125 553.484375 669.566406 554.515625 669.566406 Z M 548.097656 676.179688 L 551.425781 676.179688 C 552 676.179688 552.464844 676.644531 552.464844 677.21875 L 552.464844 678.214844 C 552.464844 678.789062 552 679.253906 551.425781 679.253906 L 547.101562 679.253906 C 547.402344 678.214844 547.734375 677.191406 548.097656 676.179688 Z M 554.1875 689.269531 L 558.550781 689.269531 C 559.585938 689.269531 560.425781 688.484375 560.425781 687.523438 C 560.425781 686.558594 559.722656 685.777344 558.859375 685.777344 C 558.464844 685.777344 558.128906 685.300781 558.128906 684.734375 L 558.128906 683.742188 C 558.128906 683.167969 558.597656 682.699219 559.167969 682.699219 L 568.160156 682.699219 C 569.191406 682.699219 570.03125 681.917969 570.03125 680.953125 C 570.03125 679.992188 569.238281 679.207031 568.265625 679.207031 C 567.75 679.207031 567.332031 678.742188 567.332031 678.167969 L 567.332031 677.171875 C 567.332031 676.601562 567.800781 676.132812 568.375 676.132812 L 575.074219 676.132812 C 575.648438 676.132812 576.117188 676.601562 576.117188 677.171875 L 576.117188 678.167969 C 576.117188 678.742188 575.648438 679.207031 575.074219 679.207031 L 574.980469 679.207031 C 573.945312 679.207031 573.105469 679.992188 573.105469 680.953125 C 573.105469 681.917969 573.945312 682.699219 574.980469 682.699219 L 575.136719 682.699219 C 575.710938 682.699219 576.175781 683.167969 576.175781 683.742188 L 576.175781 684.734375 C 576.175781 685.308594 575.710938 685.777344 575.136719 685.777344 L 565.371094 685.777344 C 564.339844 685.777344 563.5 686.558594 563.5 687.523438 C 563.5 688.484375 564.339844 689.269531 565.371094 689.269531 L 570.808594 689.269531 C 571.382812 689.269531 571.851562 689.734375 571.851562 690.308594 L 571.851562 691.304688 C 571.851562 691.875 571.382812 692.34375 570.808594 692.34375 L 570.328125 692.34375 C 569.292969 692.34375 568.453125 693.125 568.453125 694.089844 C 568.453125 695.050781 569.292969 695.835938 570.328125 695.835938 L 572.847656 695.835938 C 573.421875 695.835938 573.890625 696.300781 573.890625 696.875 L 573.890625 697.871094 C 573.890625 698.445312 573.421875 698.910156 572.847656 698.910156 L 562.660156 698.910156 C 562.085938 698.910156 561.617188 698.445312 561.617188 697.871094 L 561.617188 696.875 C 561.617188 696.300781 562.085938 695.835938 562.660156 695.835938 L 563.507812 695.835938 C 564.539062 695.835938 565.378906 695.050781 565.378906 694.089844 C 565.378906 693.125 564.539062 692.34375 563.507812 692.34375 L 548.59375 692.34375 C 548.019531 692.34375 547.550781 691.875 547.550781 691.304688 L 547.550781 690.308594 C 547.550781 689.671875 547.832031 689.269531 547.980469 689.269531 C 548.6875 689.269531 549.238281 688.5 549.238281 687.523438 C 549.238281 686.558594 548.398438 685.777344 547.367188 685.777344 L 547.332031 685.777344 C 546.757812 685.777344 546.289062 685.308594 546.289062 684.734375 L 546.289062 683.742188 C 546.289062 683.167969 546.757812 682.699219 547.332031 682.699219 L 554.222656 682.699219 C 554.796875 682.699219 555.265625 683.167969 555.265625 683.742188 L 555.265625 684.734375 C 555.265625 685.308594 554.796875 685.777344 554.222656 685.777344 L 554.1875 685.777344 C 553.15625 685.777344 552.316406 686.558594 552.316406 687.523438 C 552.316406 688.484375 553.15625 689.269531 554.1875 689.269531 Z M 547.785156 698.910156 C 547.261719 698.910156 546.835938 698.445312 546.835938 697.871094 L 546.835938 696.875 C 546.835938 696.300781 547.304688 695.835938 547.875 695.835938 L 557.046875 695.835938 C 557.621094 695.835938 558.085938 696.300781 558.085938 696.875 L 558.085938 697.871094 C 558.085938 698.445312 557.621094 698.910156 557.046875 698.910156 L 554.515625 698.910156 C 553.484375 698.910156 552.644531 699.695312 552.644531 700.65625 C 552.644531 701.621094 553.484375 702.402344 554.515625 702.402344 L 574.535156 702.402344 C 575.109375 702.402344 575.574219 702.871094 575.574219 703.445312 L 575.574219 704.4375 C 575.574219 705.011719 575.109375 705.480469 574.535156 705.480469 L 563.53125 705.480469 C 562.5 705.480469 561.65625 706.261719 561.65625 707.226562 C 561.65625 708.1875 562.472656 708.96875 563.472656 708.96875 C 564.015625 708.96875 564.457031 709.4375 564.457031 710.011719 L 564.457031 711.003906 C 564.457031 711.578125 563.988281 712.046875 563.414062 712.046875 L 556.226562 712.046875 C 555.652344 712.046875 555.1875 711.578125 555.1875 711.003906 L 555.1875 710.011719 C 555.1875 709.4375 555.652344 708.96875 556.226562 708.96875 L 556.710938 708.96875 C 557.742188 708.96875 558.582031 708.1875 558.582031 707.226562 C 558.582031 706.261719 557.742188 705.480469 556.710938 705.480469 L 546.5 705.480469 C 546.257812 704.464844 546.046875 703.4375 545.863281 702.402344 L 547.695312 702.402344 C 548.726562 702.402344 549.566406 701.621094 549.566406 700.65625 C 549.566406 699.695312 548.769531 698.910156 547.785156 698.910156 Z M 547.476562 709.015625 L 548.945312 709.015625 C 549.519531 709.015625 549.984375 709.484375 549.984375 710.058594 L 549.984375 711.050781 C 549.984375 711.625 549.519531 712.09375 548.945312 712.09375 L 548.558594 712.09375 C 548.164062 711.082031 547.804688 710.054688 547.476562 709.015625 Z M 558.859375 718.613281 C 558.464844 718.613281 558.128906 718.136719 558.128906 717.574219 L 558.128906 716.578125 C 558.128906 716.003906 558.59375 715.539062 559.167969 715.539062 L 570.152344 715.539062 C 571.183594 715.539062 572.023438 714.753906 572.023438 713.792969 C 572.023438 712.828125 571.183594 712.046875 570.152344 712.046875 L 568.375 712.046875 C 567.800781 712.046875 567.332031 711.578125 567.332031 711.007812 L 567.332031 710.011719 C 567.332031 709.4375 567.800781 708.972656 568.375 708.972656 L 577.542969 708.972656 C 578.117188 708.972656 578.585938 709.4375 578.585938 710.011719 L 578.585938 711.007812 C 578.585938 711.578125 578.117188 712.046875 577.542969 712.046875 L 576.972656 712.046875 C 575.941406 712.046875 575.101562 712.828125 575.101562 713.792969 C 575.101562 714.753906 575.804688 715.539062 576.667969 715.539062 C 577.070312 715.539062 577.40625 716.015625 577.40625 716.578125 L 577.40625 717.574219 C 577.40625 718.148438 576.9375 718.613281 576.363281 718.613281 L 565.371094 718.613281 C 564.339844 718.613281 563.5 719.398438 563.5 720.359375 C 563.5 721.324219 564.339844 722.105469 565.371094 722.105469 L 574.894531 722.105469 C 575.46875 722.105469 575.9375 722.574219 575.9375 723.144531 L 575.9375 724.140625 C 575.9375 724.714844 575.46875 725.179688 574.894531 725.179688 L 570.328125 725.179688 C 569.292969 725.179688 568.453125 725.964844 568.453125 726.925781 C 568.453125 727.890625 569.292969 728.671875 570.328125 728.671875 L 571.644531 728.671875 C 572.21875 728.671875 572.683594 729.140625 572.683594 729.714844 L 572.683594 730.707031 C 572.683594 731.28125 572.21875 731.75 571.644531 731.75 L 562.660156 731.75 C 562.085938 731.75 561.617188 731.28125 561.617188 730.707031 L 561.617188 729.714844 C 561.617188 729.140625 562.085938 728.671875 562.660156 728.671875 L 563.507812 728.671875 C 564.539062 728.671875 565.378906 727.890625 565.378906 726.925781 C 565.378906 725.964844 564.539062 725.179688 563.507812 725.179688 L 555.984375 725.179688 C 555.191406 724.167969 554.441406 723.121094 553.726562 722.050781 C 553.875 722.085938 554.027344 722.105469 554.1875 722.105469 L 558.550781 722.105469 C 559.585938 722.105469 560.425781 721.324219 560.425781 720.359375 C 560.425781 719.398438 559.722656 718.613281 558.859375 718.613281 Z M 552.378906 719.917969 C 551.53125 718.5 550.75 717.039062 550.039062 715.539062 L 554.222656 715.539062 C 554.796875 715.539062 555.261719 716.003906 555.261719 716.578125 L 555.261719 717.574219 C 555.261719 718.148438 554.796875 718.613281 554.222656 718.613281 L 554.1875 718.613281 C 553.320312 718.613281 552.589844 719.167969 552.378906 719.917969 Z M 556.648438 726.015625 L 563.507812 726.015625 C 564.078125 726.015625 564.546875 726.421875 564.546875 726.925781 C 564.546875 727.429688 564.078125 727.839844 563.507812 727.839844 L 562.660156 727.839844 C 561.625 727.839844 560.785156 728.683594 560.785156 729.714844 L 560.785156 730.53125 C 559.320312 729.109375 557.9375 727.601562 556.648438 726.015625 Z M 573.992188 739.847656 C 571.339844 738.539062 568.8125 737.011719 566.4375 735.285156 L 577.210938 735.285156 C 577.785156 735.285156 578.25 735.753906 578.25 736.328125 L 578.25 737.320312 C 578.25 737.894531 577.785156 738.363281 577.210938 738.363281 L 575.84375 738.363281 C 574.90625 738.363281 574.128906 739.007812 573.992188 739.847656 Z M 582.386719 743.097656 C 581.117188 742.730469 579.867188 742.316406 578.640625 741.855469 L 581.34375 741.855469 C 581.917969 741.855469 582.386719 742.320312 582.386719 742.894531 Z M 611.011719 743.097656 L 611.011719 742.894531 C 611.011719 742.320312 611.480469 741.855469 612.054688 741.855469 L 614.761719 741.855469 C 613.53125 742.316406 612.28125 742.730469 611.011719 743.097656 Z M 617.554688 738.363281 L 616.1875 738.363281 C 615.613281 738.363281 615.148438 737.894531 615.148438 737.320312 L 615.148438 736.328125 C 615.148438 735.753906 615.613281 735.285156 616.1875 735.285156 L 626.960938 735.285156 C 624.585938 737.011719 622.058594 738.539062 619.40625 739.847656 C 619.269531 739.007812 618.492188 738.363281 617.554688 738.363281 Z M 623.070312 725.179688 L 618.503906 725.179688 C 617.929688 725.179688 617.460938 724.714844 617.460938 724.140625 L 617.460938 723.144531 C 617.460938 722.574219 617.929688 722.105469 618.503906 722.105469 L 628.027344 722.105469 C 629.058594 722.105469 629.898438 721.324219 629.898438 720.359375 C 629.898438 719.398438 629.058594 718.613281 628.027344 718.613281 L 617.03125 718.613281 C 616.460938 718.613281 615.992188 718.148438 615.992188 717.574219 L 615.992188 716.578125 C 615.992188 716.015625 616.328125 715.539062 616.730469 715.539062 C 617.59375 715.539062 618.296875 714.753906 618.296875 713.792969 C 618.296875 712.828125 617.457031 712.046875 616.425781 712.046875 L 615.855469 712.046875 C 615.28125 712.046875 614.8125 711.578125 614.8125 711.007812 L 614.8125 710.011719 C 614.8125 709.4375 615.28125 708.972656 615.855469 708.972656 L 625.023438 708.972656 C 625.597656 708.972656 626.066406 709.4375 626.066406 710.011719 L 626.066406 711.007812 C 626.066406 711.578125 625.597656 712.046875 625.023438 712.046875 L 623.246094 712.046875 C 622.210938 712.046875 621.371094 712.828125 621.371094 713.792969 C 621.371094 714.753906 622.210938 715.539062 623.246094 715.539062 L 634.230469 715.539062 C 634.804688 715.539062 635.269531 716.003906 635.269531 716.578125 L 635.269531 717.574219 C 635.269531 718.136719 634.933594 718.613281 634.539062 718.613281 C 633.675781 718.613281 632.972656 719.398438 632.972656 720.359375 C 632.972656 721.324219 633.8125 722.105469 634.847656 722.105469 L 639.210938 722.105469 C 639.371094 722.105469 639.523438 722.085938 639.671875 722.050781 C 638.957031 723.121094 638.207031 724.167969 637.414062 725.179688 L 629.890625 725.179688 C 628.859375 725.179688 628.019531 725.964844 628.019531 726.925781 C 628.019531 727.890625 628.859375 728.671875 629.890625 728.671875 L 630.738281 728.671875 C 631.3125 728.671875 631.78125 729.140625 631.78125 729.714844 L 631.78125 730.707031 C 631.78125 731.28125 631.3125 731.75 630.738281 731.75 L 621.753906 731.75 C 621.179688 731.75 620.710938 731.28125 620.710938 730.707031 L 620.710938 729.714844 C 620.710938 729.140625 621.179688 728.671875 621.753906 728.671875 L 623.070312 728.671875 C 624.105469 728.671875 624.945312 727.890625 624.945312 726.925781 C 624.945312 725.964844 624.105469 725.179688 623.070312 725.179688 Z M 639.210938 718.613281 L 639.175781 718.613281 C 638.601562 718.613281 638.136719 718.148438 638.136719 717.574219 L 638.136719 716.578125 C 638.136719 716.003906 638.601562 715.539062 639.175781 715.539062 L 643.359375 715.539062 C 642.648438 717.039062 641.867188 718.5 641.019531 719.917969 C 640.808594 719.167969 640.078125 718.613281 639.210938 718.613281 Z M 632.613281 730.53125 L 632.613281 729.714844 C 632.613281 728.683594 631.773438 727.839844 630.742188 727.839844 L 629.890625 727.839844 C 629.320312 727.839844 628.851562 727.429688 628.851562 726.925781 C 628.851562 726.421875 629.320312 726.015625 629.890625 726.015625 L 636.75 726.015625 C 635.460938 727.601562 634.078125 729.109375 632.613281 730.53125 Z M 644.839844 712.09375 L 644.453125 712.09375 C 643.878906 712.09375 643.414062 711.625 643.414062 711.050781 L 643.414062 710.058594 C 643.414062 709.484375 643.878906 709.015625 644.453125 709.015625 L 645.921875 709.015625 C 645.59375 710.054688 645.234375 711.082031 644.839844 712.09375 Z M 636.6875 708.972656 L 637.171875 708.972656 C 637.746094 708.972656 638.210938 709.4375 638.210938 710.011719 L 638.210938 711.007812 C 638.210938 711.578125 637.746094 712.046875 637.171875 712.046875 L 629.984375 712.046875 C 629.410156 712.046875 628.945312 711.578125 628.945312 711.007812 L 628.945312 710.011719 C 628.945312 709.4375 629.382812 708.972656 629.925781 708.972656 C 630.925781 708.972656 631.742188 708.1875 631.742188 707.226562 C 631.742188 706.261719 630.902344 705.480469 629.867188 705.480469 L 618.863281 705.480469 C 618.289062 705.480469 617.824219 705.011719 617.824219 704.4375 L 617.824219 703.445312 C 617.824219 702.871094 618.289062 702.402344 618.863281 702.402344 L 638.882812 702.402344 C 639.914062 702.402344 640.753906 701.621094 640.753906 700.65625 C 640.753906 699.695312 639.914062 698.910156 638.882812 698.910156 L 636.351562 698.910156 C 635.777344 698.910156 635.3125 698.445312 635.3125 697.871094 L 635.3125 696.875 C 635.3125 696.300781 635.777344 695.835938 636.351562 695.835938 L 645.523438 695.835938 C 646.097656 695.835938 646.5625 696.300781 646.5625 696.875 L 646.5625 697.871094 C 646.5625 698.445312 646.136719 698.910156 645.613281 698.910156 C 644.628906 698.910156 643.832031 699.695312 643.832031 700.65625 C 643.832031 701.621094 644.671875 702.402344 645.703125 702.402344 L 647.535156 702.402344 C 647.355469 703.441406 647.140625 704.464844 646.898438 705.480469 L 636.6875 705.480469 C 635.65625 705.480469 634.816406 706.261719 634.816406 707.226562 C 634.816406 708.1875 635.65625 708.972656 636.6875 708.972656 Z M 647.671875 701.570312 C 647.664062 701.570312 647.660156 701.570312 647.652344 701.570312 L 645.703125 701.570312 C 645.128906 701.570312 644.664062 701.160156 644.664062 700.65625 C 644.664062 700.152344 645.089844 699.742188 645.613281 699.742188 C 646.59375 699.742188 647.394531 698.902344 647.394531 697.871094 L 647.394531 696.875 C 647.394531 695.84375 646.554688 695.003906 645.523438 695.003906 L 636.351562 695.003906 C 635.320312 695.003906 634.480469 695.84375 634.480469 696.875 L 634.480469 697.871094 C 634.480469 698.902344 635.320312 699.742188 636.351562 699.742188 L 638.882812 699.742188 C 639.457031 699.742188 639.921875 700.152344 639.921875 700.65625 C 639.921875 701.160156 639.457031 701.570312 638.882812 701.570312 L 618.863281 701.570312 C 617.832031 701.570312 616.992188 702.410156 616.992188 703.445312 L 616.992188 704.4375 C 616.992188 705.472656 617.832031 706.3125 618.863281 706.3125 L 629.867188 706.3125 C 630.441406 706.3125 630.90625 706.722656 630.90625 707.226562 C 630.90625 707.730469 630.46875 708.136719 629.925781 708.136719 C 628.925781 708.136719 628.109375 708.976562 628.109375 710.011719 L 628.109375 711.007812 C 628.109375 712.039062 628.949219 712.878906 629.984375 712.878906 L 637.171875 712.878906 C 638.203125 712.878906 639.042969 712.039062 639.042969 711.007812 L 639.042969 710.011719 C 639.042969 708.980469 638.203125 708.136719 637.171875 708.136719 L 636.6875 708.136719 C 636.113281 708.136719 635.648438 707.730469 635.648438 707.226562 C 635.648438 706.722656 636.113281 706.3125 636.6875 706.3125 L 646.695312 706.3125 C 646.535156 706.941406 646.359375 707.5625 646.175781 708.183594 L 644.453125 708.183594 C 643.421875 708.183594 642.582031 709.023438 642.582031 710.058594 L 642.582031 711.050781 C 642.582031 712.085938 643.421875 712.925781 644.453125 712.925781 L 644.507812 712.925781 C 644.265625 713.523438 644.011719 714.117188 643.75 714.707031 L 639.175781 714.707031 C 638.140625 714.707031 637.300781 715.546875 637.300781 716.578125 L 637.300781 717.574219 C 637.300781 718.605469 638.140625 719.445312 639.175781 719.445312 L 639.210938 719.445312 C 639.785156 719.445312 640.25 719.855469 640.25 720.359375 C 640.25 720.863281 639.785156 721.273438 639.210938 721.273438 L 634.847656 721.273438 C 634.273438 721.273438 633.804688 720.863281 633.804688 720.359375 C 633.804688 719.863281 634.140625 719.445312 634.539062 719.445312 C 635.398438 719.445312 636.101562 718.605469 636.101562 717.574219 L 636.101562 716.578125 C 636.101562 715.546875 635.261719 714.707031 634.230469 714.707031 L 623.246094 714.707031 C 622.671875 714.707031 622.203125 714.296875 622.203125 713.792969 C 622.203125 713.289062 622.671875 712.878906 623.246094 712.878906 L 625.023438 712.878906 C 626.054688 712.878906 626.898438 712.039062 626.898438 711.007812 L 626.898438 710.011719 C 626.898438 708.980469 626.058594 708.136719 625.023438 708.136719 L 615.855469 708.136719 C 614.820312 708.136719 613.980469 708.976562 613.980469 710.011719 L 613.980469 711.007812 C 613.980469 712.039062 614.820312 712.878906 615.855469 712.878906 L 616.425781 712.878906 C 616.996094 712.878906 617.464844 713.289062 617.464844 713.792969 C 617.464844 714.289062 617.128906 714.707031 616.726562 714.707031 C 615.863281 714.707031 615.160156 715.546875 615.160156 716.578125 L 615.160156 717.574219 C 615.160156 718.605469 616 719.445312 617.03125 719.445312 L 628.023438 719.445312 C 628.597656 719.445312 629.066406 719.855469 629.066406 720.359375 C 629.066406 720.863281 628.597656 721.273438 628.023438 721.273438 L 618.503906 721.273438 C 617.46875 721.273438 616.628906 722.113281 616.628906 723.144531 L 616.628906 724.140625 C 616.628906 725.171875 617.46875 726.015625 618.503906 726.015625 L 623.070312 726.015625 C 623.644531 726.015625 624.109375 726.425781 624.109375 726.929688 C 624.109375 727.429688 623.644531 727.839844 623.070312 727.839844 L 621.753906 727.839844 C 620.71875 727.839844 619.878906 728.683594 619.878906 729.714844 L 619.878906 730.710938 C 619.878906 731.742188 620.71875 732.582031 621.753906 732.582031 L 630.378906 732.582031 C 629.628906 733.226562 628.859375 733.851562 628.074219 734.453125 L 616.1875 734.453125 C 615.152344 734.453125 614.3125 735.296875 614.3125 736.328125 L 614.3125 737.324219 C 614.3125 738.355469 615.152344 739.195312 616.1875 739.195312 L 617.554688 739.195312 C 618.128906 739.195312 618.59375 739.605469 618.59375 740.109375 C 618.59375 740.15625 618.585938 740.199219 618.582031 740.242188 C 618.007812 740.511719 617.429688 740.773438 616.847656 741.023438 L 612.050781 741.023438 C 611.019531 741.023438 610.179688 741.863281 610.179688 742.894531 L 610.179688 743.328125 C 605.878906 744.492188 601.363281 745.117188 596.699219 745.117188 C 592.035156 745.117188 587.515625 744.492188 583.214844 743.328125 L 583.214844 742.894531 C 583.214844 741.863281 582.375 741.023438 581.34375 741.023438 L 576.550781 741.023438 C 575.96875 740.773438 575.390625 740.511719 574.816406 740.242188 C 574.808594 740.199219 574.800781 740.15625 574.800781 740.109375 C 574.800781 739.605469 575.269531 739.195312 575.839844 739.195312 L 577.210938 739.195312 C 578.242188 739.195312 579.082031 738.355469 579.082031 737.320312 L 579.082031 736.328125 C 579.082031 735.292969 578.242188 734.453125 577.210938 734.453125 L 565.324219 734.453125 C 564.539062 733.851562 563.769531 733.226562 563.019531 732.582031 L 571.644531 732.582031 C 572.675781 732.582031 573.515625 731.742188 573.515625 730.710938 L 573.515625 729.714844 C 573.515625 728.679688 572.675781 727.839844 571.644531 727.839844 L 570.324219 727.839844 C 569.753906 727.839844 569.285156 727.429688 569.285156 726.925781 C 569.285156 726.421875 569.753906 726.015625 570.324219 726.015625 L 574.894531 726.015625 C 575.925781 726.015625 576.765625 725.171875 576.765625 724.140625 L 576.765625 723.144531 C 576.765625 722.113281 575.925781 721.273438 574.894531 721.273438 L 565.371094 721.273438 C 564.796875 721.273438 564.332031 720.863281 564.332031 720.359375 C 564.332031 719.855469 564.796875 719.445312 565.371094 719.445312 L 576.363281 719.445312 C 577.398438 719.445312 578.238281 718.605469 578.238281 717.574219 L 578.238281 716.578125 C 578.238281 715.546875 577.535156 714.707031 576.667969 714.707031 C 576.269531 714.707031 575.933594 714.289062 575.933594 713.792969 C 575.933594 713.289062 576.398438 712.878906 576.972656 712.878906 L 577.542969 712.878906 C 578.574219 712.878906 579.414062 712.039062 579.414062 711.007812 L 579.414062 710.011719 C 579.414062 708.976562 578.574219 708.136719 577.542969 708.136719 L 568.371094 708.136719 C 567.339844 708.136719 566.5 708.976562 566.5 710.011719 L 566.5 711.007812 C 566.5 712.039062 567.339844 712.878906 568.371094 712.878906 L 570.152344 712.878906 C 570.726562 712.878906 571.191406 713.289062 571.191406 713.792969 C 571.191406 714.296875 570.726562 714.707031 570.152344 714.707031 L 559.167969 714.707031 C 558.136719 714.707031 557.296875 715.546875 557.296875 716.578125 L 557.296875 717.574219 C 557.296875 718.605469 557.996094 719.445312 558.859375 719.445312 C 559.257812 719.445312 559.59375 719.863281 559.59375 720.359375 C 559.59375 720.863281 559.125 721.273438 558.550781 721.273438 L 554.1875 721.273438 C 553.613281 721.273438 553.148438 720.863281 553.148438 720.359375 C 553.148438 719.855469 553.613281 719.445312 554.1875 719.445312 L 554.222656 719.445312 C 555.253906 719.445312 556.097656 718.605469 556.097656 717.574219 L 556.097656 716.578125 C 556.097656 715.546875 555.253906 714.707031 554.222656 714.707031 L 549.648438 714.707031 C 549.382812 714.117188 549.132812 713.523438 548.886719 712.925781 L 548.945312 712.925781 C 549.976562 712.925781 550.816406 712.085938 550.816406 711.050781 L 550.816406 710.058594 C 550.816406 709.023438 549.976562 708.183594 548.945312 708.183594 L 547.222656 708.183594 C 547.039062 707.5625 546.863281 706.941406 546.703125 706.3125 L 556.710938 706.3125 C 557.285156 706.3125 557.75 706.722656 557.75 707.226562 C 557.75 707.726562 557.28125 708.136719 556.710938 708.136719 L 556.226562 708.136719 C 555.195312 708.136719 554.351562 708.976562 554.351562 710.011719 L 554.351562 711.003906 C 554.351562 712.039062 555.195312 712.878906 556.226562 712.878906 L 563.414062 712.878906 C 564.445312 712.878906 565.289062 712.039062 565.289062 711.003906 L 565.289062 710.011719 C 565.289062 708.976562 564.472656 708.136719 563.472656 708.136719 C 562.929688 708.136719 562.492188 707.726562 562.492188 707.226562 C 562.492188 706.722656 562.957031 706.3125 563.53125 706.3125 L 574.535156 706.3125 C 575.566406 706.3125 576.40625 705.472656 576.40625 704.4375 L 576.40625 703.445312 C 576.40625 702.410156 575.566406 701.570312 574.535156 701.570312 L 554.515625 701.570312 C 553.941406 701.570312 553.476562 701.160156 553.476562 700.65625 C 553.476562 700.152344 553.941406 699.742188 554.515625 699.742188 L 557.046875 699.742188 C 558.078125 699.742188 558.917969 698.902344 558.917969 697.871094 L 558.917969 696.875 C 558.917969 695.84375 558.078125 695.003906 557.046875 695.003906 L 547.875 695.003906 C 546.84375 695.003906 546.003906 695.84375 546.003906 696.875 L 546.003906 697.871094 C 546.003906 698.902344 546.804688 699.742188 547.785156 699.742188 C 548.308594 699.742188 548.734375 700.152344 548.734375 700.65625 C 548.734375 701.160156 548.269531 701.570312 547.695312 701.570312 L 545.746094 701.570312 C 545.738281 701.570312 545.734375 701.570312 545.726562 701.570312 C 545.3125 698.945312 545.097656 696.253906 545.097656 693.515625 C 545.097656 690.839844 545.300781 688.210938 545.695312 685.644531 C 546.015625 686.21875 546.628906 686.609375 547.332031 686.609375 L 547.367188 686.609375 C 547.941406 686.609375 548.40625 687.019531 548.40625 687.523438 C 548.40625 688.050781 548.152344 688.4375 547.980469 688.4375 C 547.273438 688.4375 546.71875 689.257812 546.71875 690.308594 L 546.71875 691.304688 C 546.71875 692.335938 547.558594 693.175781 548.59375 693.175781 L 563.507812 693.175781 C 564.078125 693.175781 564.546875 693.585938 564.546875 694.089844 C 564.546875 694.59375 564.078125 695.003906 563.507812 695.003906 L 562.660156 695.003906 C 561.625 695.003906 560.785156 695.84375 560.785156 696.875 L 560.785156 697.871094 C 560.785156 698.902344 561.625 699.742188 562.660156 699.742188 L 572.847656 699.742188 C 573.882812 699.742188 574.722656 698.902344 574.722656 697.871094 L 574.722656 696.875 C 574.722656 695.84375 573.882812 695.003906 572.847656 695.003906 L 570.328125 695.003906 C 569.753906 695.003906 569.289062 694.59375 569.289062 694.089844 C 569.289062 693.585938 569.753906 693.175781 570.328125 693.175781 L 570.808594 693.175781 C 571.84375 693.175781 572.683594 692.335938 572.683594 691.304688 L 572.683594 690.308594 C 572.683594 689.277344 571.84375 688.4375 570.808594 688.4375 L 565.375 688.4375 C 564.800781 688.4375 564.332031 688.027344 564.332031 687.523438 C 564.332031 687.019531 564.800781 686.609375 565.375 686.609375 L 575.136719 686.609375 C 576.167969 686.609375 577.007812 685.769531 577.007812 684.734375 L 577.007812 683.742188 C 577.007812 682.707031 576.167969 681.867188 575.136719 681.867188 L 574.980469 681.867188 C 574.40625 681.867188 573.9375 681.457031 573.9375 680.953125 C 573.9375 680.449219 574.40625 680.039062 574.980469 680.039062 L 575.078125 680.039062 C 576.109375 680.039062 576.949219 679.199219 576.949219 678.167969 L 576.949219 677.171875 C 576.949219 676.140625 576.109375 675.300781 575.078125 675.300781 L 568.375 675.300781 C 567.34375 675.300781 566.5 676.140625 566.5 677.171875 L 566.5 678.167969 C 566.5 679.199219 567.292969 680.039062 568.265625 680.039062 C 568.78125 680.039062 569.199219 680.449219 569.199219 680.953125 C 569.199219 681.457031 568.730469 681.867188 568.160156 681.867188 L 559.167969 681.867188 C 558.136719 681.867188 557.296875 682.707031 557.296875 683.742188 L 557.296875 684.734375 C 557.296875 685.769531 558 686.609375 558.859375 686.609375 C 559.257812 686.609375 559.59375 687.027344 559.59375 687.523438 C 559.59375 688.027344 559.125 688.4375 558.550781 688.4375 L 554.1875 688.4375 C 553.613281 688.4375 553.148438 688.027344 553.148438 687.523438 C 553.148438 687.019531 553.613281 686.609375 554.1875 686.609375 L 554.222656 686.609375 C 555.253906 686.609375 556.09375 685.769531 556.09375 684.734375 L 556.09375 683.742188 C 556.09375 682.707031 555.253906 681.867188 554.222656 681.867188 L 547.332031 681.867188 C 546.976562 681.867188 546.644531 681.96875 546.359375 682.144531 C 546.515625 681.453125 546.6875 680.765625 546.871094 680.085938 L 551.425781 680.085938 C 552.457031 680.085938 553.296875 679.246094 553.296875 678.214844 L 553.296875 677.21875 C 553.296875 676.1875 552.457031 675.34375 551.425781 675.34375 L 548.402344 675.34375 C 548.640625 674.714844 548.886719 674.089844 549.148438 673.472656 L 556.710938 673.472656 C 557.285156 673.472656 557.75 673.882812 557.75 674.386719 C 557.75 674.890625 557.285156 675.300781 556.710938 675.300781 L 556.226562 675.300781 C 555.195312 675.300781 554.355469 676.140625 554.355469 677.171875 L 554.355469 678.167969 C 554.355469 679.199219 555.195312 680.039062 556.226562 680.039062 L 563.414062 680.039062 C 564.449219 680.039062 565.289062 679.199219 565.289062 678.167969 L 565.289062 677.171875 C 565.289062 676.140625 564.472656 675.300781 563.472656 675.300781 C 562.933594 675.300781 562.492188 674.890625 562.492188 674.386719 C 562.492188 673.882812 562.957031 673.472656 563.53125 673.472656 L 571.585938 673.472656 C 572.617188 673.472656 573.457031 672.632812 573.457031 671.601562 L 573.457031 670.605469 C 573.457031 669.574219 572.617188 668.734375 571.585938 668.734375 L 554.515625 668.734375 C 553.941406 668.734375 553.476562 668.324219 553.476562 667.820312 C 553.476562 667.316406 553.941406 666.90625 554.515625 666.90625 L 557.046875 666.90625 C 558.078125 666.90625 558.917969 666.066406 558.917969 665.03125 L 558.917969 664.039062 C 558.917969 663.003906 558.078125 662.164062 557.046875 662.164062 L 555.742188 662.164062 C 556.210938 661.550781 556.695312 660.949219 557.195312 660.355469 L 563.511719 660.355469 C 564.085938 660.355469 564.550781 660.765625 564.550781 661.269531 C 564.550781 661.773438 564.085938 662.183594 563.511719 662.183594 L 562.441406 662.183594 C 561.410156 662.183594 560.570312 663.023438 560.570312 664.054688 L 560.570312 665.050781 C 560.570312 666.082031 561.410156 666.921875 562.441406 666.921875 L 570.597656 666.921875 C 571.628906 666.921875 572.472656 666.082031 572.472656 665.050781 L 572.472656 664.054688 C 572.472656 663.023438 571.628906 662.183594 570.597656 662.183594 L 570.332031 662.183594 C 569.757812 662.183594 569.292969 661.773438 569.292969 661.269531 C 569.292969 660.765625 569.757812 660.355469 570.332031 660.355469 L 572.066406 660.355469 C 573.097656 660.355469 573.9375 659.515625 573.9375 658.484375 L 573.9375 657.488281 C 573.9375 656.457031 573.097656 655.613281 572.066406 655.613281 L 561.71875 655.613281 C 562.4375 654.949219 563.175781 654.300781 563.933594 653.679688 L 577.210938 653.679688 C 578.242188 653.679688 579.085938 652.839844 579.085938 651.804688 L 579.085938 650.8125 C 579.085938 649.777344 578.242188 648.9375 577.207031 648.9375 C 576.632812 648.9375 576.167969 648.527344 576.167969 648.023438 C 576.167969 647.519531 576.632812 647.109375 577.207031 647.109375 L 581.34375 647.109375 C 582.378906 647.109375 583.21875 646.269531 583.21875 645.238281 L 583.21875 644.242188 C 583.21875 644.0625 583.191406 643.886719 583.140625 643.722656 C 587.464844 642.542969 592.007812 641.910156 596.699219 641.910156 C 601.390625 641.910156 605.933594 642.542969 610.257812 643.722656 C 610.210938 643.886719 610.179688 644.0625 610.179688 644.242188 L 610.179688 645.238281 C 610.179688 646.269531 611.019531 647.109375 612.054688 647.109375 L 616.191406 647.109375 C 616.765625 647.109375 617.230469 647.519531 617.230469 648.023438 C 617.230469 648.527344 616.765625 648.9375 616.1875 648.9375 C 615.15625 648.9375 614.316406 649.777344 614.316406 650.8125 L 614.316406 651.804688 C 614.316406 652.839844 615.15625 653.679688 616.1875 653.679688 L 629.464844 653.679688 C 630.222656 654.300781 630.960938 654.949219 631.679688 655.613281 L 621.332031 655.613281 C 620.300781 655.613281 619.460938 656.453125 619.460938 657.488281 L 619.460938 658.484375 C 619.460938 659.515625 620.300781 660.355469 621.332031 660.355469 L 623.066406 660.355469 C 623.640625 660.355469 624.105469 660.765625 624.105469 661.269531 C 624.105469 661.773438 623.640625 662.183594 623.066406 662.183594 L 622.800781 662.183594 C 621.769531 662.183594 620.929688 663.023438 620.929688 664.054688 L 620.929688 665.050781 C 620.929688 666.082031 621.769531 666.921875 622.800781 666.921875 L 630.957031 666.921875 C 631.988281 666.921875 632.828125 666.082031 632.828125 665.050781 L 632.828125 664.054688 C 632.828125 663.023438 631.988281 662.183594 630.957031 662.183594 L 629.886719 662.183594 C 629.3125 662.183594 628.847656 661.773438 628.847656 661.269531 C 628.847656 660.765625 629.3125 660.355469 629.886719 660.355469 L 636.207031 660.355469 C 636.703125 660.949219 637.1875 661.550781 637.660156 662.164062 L 636.351562 662.164062 C 635.320312 662.164062 634.480469 663.003906 634.480469 664.039062 L 634.480469 665.03125 C 634.480469 666.066406 635.320312 666.90625 636.351562 666.90625 L 638.882812 666.90625 C 639.457031 666.90625 639.921875 667.316406 639.921875 667.820312 C 639.921875 668.324219 639.457031 668.734375 638.882812 668.734375 L 621.8125 668.734375 C 620.78125 668.734375 619.941406 669.574219 619.941406 670.605469 L 619.941406 671.601562 C 619.941406 672.632812 620.78125 673.472656 621.8125 673.472656 L 629.867188 673.472656 C 630.441406 673.472656 630.90625 673.882812 630.90625 674.386719 C 630.90625 674.890625 630.46875 675.300781 629.925781 675.300781 C 628.925781 675.300781 628.109375 676.140625 628.109375 677.171875 L 628.109375 678.167969 C 628.109375 679.199219 628.949219 680.039062 629.984375 680.039062 L 637.171875 680.039062 C 638.203125 680.039062 639.042969 679.199219 639.042969 678.167969 L 639.042969 677.171875 C 639.042969 676.140625 638.203125 675.300781 637.171875 675.300781 L 636.6875 675.300781 C 636.113281 675.300781 635.648438 674.890625 635.648438 674.386719 C 635.648438 673.882812 636.113281 673.472656 636.6875 673.472656 L 644.25 673.472656 C 644.511719 674.089844 644.757812 674.714844 644.996094 675.34375 L 641.972656 675.34375 C 640.941406 675.34375 640.101562 676.1875 640.101562 677.21875 L 640.101562 678.214844 C 640.101562 679.246094 640.941406 680.085938 641.972656 680.085938 L 646.527344 680.085938 C 646.710938 680.765625 646.882812 681.453125 647.039062 682.144531 C 646.753906 681.96875 646.425781 681.867188 646.066406 681.867188 L 639.175781 681.867188 C 638.144531 681.867188 637.304688 682.707031 637.304688 683.742188 L 637.304688 684.734375 C 637.304688 685.769531 638.144531 686.609375 639.175781 686.609375 L 639.210938 686.609375 C 639.785156 686.609375 640.25 687.019531 640.25 687.523438 C 640.25 688.027344 639.785156 688.4375 639.210938 688.4375 L 634.847656 688.4375 C 634.273438 688.4375 633.808594 688.027344 633.808594 687.523438 C 633.808594 687.027344 634.140625 686.609375 634.539062 686.609375 C 635.402344 686.609375 636.101562 685.769531 636.101562 684.734375 L 636.101562 683.742188 C 636.101562 682.707031 635.261719 681.867188 634.230469 681.867188 L 625.242188 681.867188 C 624.667969 681.867188 624.199219 681.457031 624.199219 680.953125 C 624.199219 680.449219 624.617188 680.039062 625.132812 680.039062 C 626.105469 680.039062 626.898438 679.199219 626.898438 678.167969 L 626.898438 677.171875 C 626.898438 676.140625 626.058594 675.300781 625.023438 675.300781 L 618.324219 675.300781 C 617.289062 675.300781 616.449219 676.140625 616.449219 677.171875 L 616.449219 678.167969 C 616.449219 679.199219 617.289062 680.039062 618.324219 680.039062 L 618.417969 680.039062 C 618.992188 680.039062 619.460938 680.449219 619.460938 680.953125 C 619.460938 681.457031 618.992188 681.867188 618.417969 681.867188 L 618.261719 681.867188 C 617.230469 681.867188 616.390625 682.707031 616.390625 683.742188 L 616.390625 684.734375 C 616.390625 685.769531 617.230469 686.609375 618.261719 686.609375 L 628.027344 686.609375 C 628.597656 686.609375 629.066406 687.019531 629.066406 687.523438 C 629.066406 688.027344 628.597656 688.4375 628.027344 688.4375 L 622.589844 688.4375 C 621.554688 688.4375 620.714844 689.277344 620.714844 690.308594 L 620.714844 691.304688 C 620.714844 692.335938 621.554688 693.175781 622.589844 693.175781 L 623.070312 693.175781 C 623.644531 693.175781 624.113281 693.585938 624.113281 694.089844 C 624.113281 694.59375 623.644531 695.003906 623.070312 695.003906 L 620.550781 695.003906 C 619.515625 695.003906 618.675781 695.84375 618.675781 696.875 L 618.675781 697.871094 C 618.675781 698.902344 619.515625 699.742188 620.550781 699.742188 L 630.738281 699.742188 C 631.773438 699.742188 632.613281 698.902344 632.613281 697.871094 L 632.613281 696.875 C 632.613281 695.84375 631.773438 695.003906 630.738281 695.003906 L 629.890625 695.003906 C 629.320312 695.003906 628.851562 694.59375 628.851562 694.089844 C 628.851562 693.585938 629.320312 693.175781 629.890625 693.175781 L 644.804688 693.175781 C 645.839844 693.175781 646.679688 692.335938 646.679688 691.304688 L 646.679688 690.308594 C 646.679688 689.257812 646.125 688.4375 645.417969 688.4375 C 645.246094 688.4375 644.992188 688.050781 644.992188 687.523438 C 644.992188 687.019531 645.457031 686.609375 646.03125 686.609375 L 646.066406 686.609375 C 646.769531 686.609375 647.382812 686.21875 647.703125 685.644531 C 648.097656 688.210938 648.300781 690.839844 648.300781 693.515625 C 648.300781 696.257812 648.085938 698.945312 647.671875 701.570312 Z M 647.671875 701.570312 " fill-opacity="1" fill-rule="nonzero"/></g><g fill="#545454" fill-opacity="1"><g transform="translate(649.141801, 737.52342)"><g><path d="M 25.453125 0 L 13.015625 0 L 13.015625 -95.625 L 23.765625 -95.625 L 60.125 -47.390625 L 60.1875 -47.390625 L 96.46875 -95.625 L 107.375 -95.625 L 107.375 0 L 94.921875 0 L 94.921875 -75.515625 L 61.875 -31.4375 L 58.296875 -31.4375 L 25.453125 -75.59375 Z M 25.453125 0 "/></g></g></g><g fill="#545454" fill-opacity="1"><g transform="translate(761.164802, 737.52342)"><g><path d="M 25.453125 0 L 13.015625 0 L 13.015625 -95.625 L 23.765625 -95.625 L 60.125 -47.390625 L 60.1875 -47.390625 L 96.46875 -95.625 L 107.375 -95.625 L 107.375 0 L 94.921875 0 L 94.921875 -75.515625 L 61.875 -31.4375 L 58.296875 -31.4375 L 25.453125 -75.59375 Z M 25.453125 0 "/></g></g></g><g fill="#545454" fill-opacity="1"><g transform="translate(873.187803, 737.52342)"><g><path d="M 25.453125 0 L 13.015625 0 L 13.015625 -95.625 L 25.453125 -95.625 Z M 25.453125 0 "/></g></g></g><g fill="#545454" fill-opacity="1"><g transform="translate(903.296749, 737.52342)"><g><path d="M 46.125 0 L 33.6875 0 L 33.6875 -84.453125 L 3.453125 -84.453125 L 3.453125 -95.625 L 76.4375 -95.625 L 76.4375 -84.453125 L 46.125 -84.453125 Z M 46.125 0 "/></g></g></g><g fill="#ffffff" fill-opacity="1"><g transform="translate(449.936914, 744.930852)"><g><path d="M 80.203125 0 C 77.515625 0 75.359375 -1.101562 73.734375 -3.3125 L 40.46875 -47.09375 L 53.5625 -60.484375 L 87.984375 -14.96875 C 89.328125 -13.144531 90 -11.179688 90 -9.078125 C 90 -6.390625 88.988281 -4.203125 86.96875 -2.515625 C 84.957031 -0.835938 82.703125 0 80.203125 0 Z M 81.9375 -101.515625 C 84.238281 -101.515625 86.132812 -100.578125 87.625 -98.703125 C 89.113281 -96.835938 89.859375 -94.945312 89.859375 -93.03125 C 89.859375 -91.007812 88.992188 -89.132812 87.265625 -87.40625 L 26.921875 -29.65625 L 26.203125 -50.25 L 74.875 -98.203125 C 77.082031 -100.410156 79.4375 -101.515625 81.9375 -101.515625 Z M 19.734375 0 C 17.046875 0 14.882812 -0.835938 13.25 -2.515625 C 11.613281 -4.203125 10.796875 -6.289062 10.796875 -8.78125 L 10.796875 -92.015625 C 10.796875 -94.515625 11.660156 -96.601562 13.390625 -98.28125 C 15.117188 -99.957031 17.328125 -100.796875 20.015625 -100.796875 C 22.703125 -100.796875 24.835938 -99.957031 26.421875 -98.28125 C 28.003906 -96.601562 28.796875 -94.515625 28.796875 -92.015625 L 28.796875 -8.78125 C 28.796875 -6.289062 27.976562 -4.203125 26.34375 -2.515625 C 24.71875 -0.835938 22.515625 0 19.734375 0 Z M 19.734375 0 "/></g></g></g><g fill="#ffffff" fill-opacity="1"><g transform="translate(439.132228, 876.93084)"><g/></g></g><g fill="#ffffff" fill-opacity="1"><g transform="translate(471.532211, 876.93084)"><g/></g></g><g fill="#ffffff" fill-opacity="1"><g transform="translate(503.932195, 876.93084)"><g/></g></g><g fill="#545454" fill-opacity="1"><g transform="translate(490.828732, 849.981003)"><g><path d="M 6.21875 0 L 6.21875 -7.796875 L 0.1875 -16.3125 L 4.484375 -16.3125 L 8.015625 -10.6875 L 11.546875 -16.3125 L 15.84375 -16.3125 L 9.8125 -7.796875 L 9.8125 0 Z M 6.21875 0 "/></g></g></g><g fill="#545454" fill-opacity="1"><g transform="translate(519.820757, 849.981003)"><g><path d="M 14.046875 -8.1875 C 14.046875 -9.03125 13.820312 -9.816406 13.375 -10.546875 C 12.925781 -11.273438 12.335938 -11.863281 11.609375 -12.3125 C 10.878906 -12.757812 10.085938 -12.984375 9.234375 -12.984375 C 8.398438 -12.984375 7.613281 -12.757812 6.875 -12.3125 C 6.144531 -11.863281 5.554688 -11.273438 5.109375 -10.546875 C 4.660156 -9.816406 4.4375 -9.03125 4.4375 -8.1875 C 4.4375 -7.351562 4.660156 -6.566406 5.109375 -5.828125 C 5.554688 -5.097656 6.144531 -4.503906 6.875 -4.046875 C 7.613281 -3.585938 8.398438 -3.359375 9.234375 -3.359375 C 10.085938 -3.359375 10.878906 -3.585938 11.609375 -4.046875 C 12.335938 -4.503906 12.925781 -5.097656 13.375 -5.828125 C 13.820312 -6.566406 14.046875 -7.351562 14.046875 -8.1875 Z M 17.640625 -8.15625 C 17.640625 -7.039062 17.414062 -5.972656 16.96875 -4.953125 C 16.519531 -3.941406 15.90625 -3.046875 15.125 -2.265625 C 14.351562 -1.492188 13.460938 -0.882812 12.453125 -0.4375 C 11.441406 0.0078125 10.367188 0.234375 9.234375 0.234375 C 8.117188 0.234375 7.050781 0.0078125 6.03125 -0.4375 C 5.019531 -0.882812 4.125 -1.492188 3.34375 -2.265625 C 2.570312 -3.046875 1.960938 -3.941406 1.515625 -4.953125 C 1.066406 -5.972656 0.84375 -7.039062 0.84375 -8.15625 C 0.84375 -9.289062 1.066406 -10.363281 1.515625 -11.375 C 1.960938 -12.382812 2.570312 -13.273438 3.34375 -14.046875 C 4.125 -14.828125 5.019531 -15.441406 6.03125 -15.890625 C 7.050781 -16.335938 8.117188 -16.5625 9.234375 -16.5625 C 10.367188 -16.5625 11.441406 -16.335938 12.453125 -15.890625 C 13.460938 -15.441406 14.351562 -14.828125 15.125 -14.046875 C 15.90625 -13.273438 16.519531 -12.382812 16.96875 -11.375 C 17.414062 -10.363281 17.640625 -9.289062 17.640625 -8.15625 Z M 17.640625 -8.15625 "/></g></g></g><g fill="#545454" fill-opacity="1"><g transform="translate(551.260787, 849.981003)"><g><path d="M 10.96875 -16.3125 L 14.5625 -16.3125 L 14.5625 -6.359375 C 14.5625 -4.179688 13.96875 -2.535156 12.78125 -1.421875 C 11.601562 -0.316406 9.953125 0.234375 7.828125 0.234375 C 5.691406 0.234375 4.03125 -0.316406 2.84375 -1.421875 C 1.664062 -2.535156 1.078125 -4.179688 1.078125 -6.359375 L 1.078125 -16.3125 L 4.6875 -16.3125 L 4.6875 -6.890625 C 4.6875 -5.765625 4.90625 -4.894531 5.34375 -4.28125 C 5.78125 -3.664062 6.609375 -3.359375 7.828125 -3.359375 C 9.054688 -3.359375 9.882812 -3.664062 10.3125 -4.28125 C 10.75 -4.894531 10.96875 -5.765625 10.96875 -6.890625 Z M 10.96875 -16.3125 "/></g></g></g><g fill="#545454" fill-opacity="1"><g transform="translate(579.868817, 849.981003)"><g><path d="M 5.046875 -5.828125 L 5.046875 0 L 1.4375 0 L 1.4375 -16.3125 L 7.5625 -16.3125 C 8.4375 -16.3125 9.253906 -16.09375 10.015625 -15.65625 C 10.773438 -15.21875 11.382812 -14.601562 11.84375 -13.8125 C 12.3125 -13.03125 12.546875 -12.125 12.546875 -11.09375 C 12.546875 -10.175781 12.378906 -9.363281 12.046875 -8.65625 C 11.710938 -7.957031 11.265625 -7.382812 10.703125 -6.9375 C 10.140625 -6.488281 9.515625 -6.175781 8.828125 -6 L 13.515625 0 L 8.953125 0 L 5.0625 -5.828125 Z M 6.953125 -13.484375 L 5.046875 -13.484375 L 5.046875 -8.65625 L 6.953125 -8.65625 C 7.484375 -8.65625 7.976562 -8.863281 8.4375 -9.28125 C 8.894531 -9.695312 9.125 -10.300781 9.125 -11.09375 C 9.125 -11.84375 8.894531 -12.425781 8.4375 -12.84375 C 7.976562 -13.269531 7.484375 -13.484375 6.953125 -13.484375 Z M 6.953125 -13.484375 "/></g></g></g><g fill="#545454" fill-opacity="1"><g transform="translate(606.052839, 849.981003)"><g/></g></g><g fill="#545454" fill-opacity="1"><g transform="translate(625.012848, 849.981003)"><g><path d="M 21.796875 -16.3125 L 18.625 0 L 14.359375 0 L 10.96875 -11.453125 L 7.5625 0 L 3.28125 0 L 0.125 -16.3125 L 4.078125 -16.3125 L 6 -5.0625 L 9.1875 -16.3125 L 12.71875 -16.3125 L 15.90625 -5.0625 L 17.828125 -16.3125 Z M 21.796875 -16.3125 "/></g></g></g><g fill="#545454" fill-opacity="1"><g transform="translate(659.884892, 849.981003)"><g><path d="M 14.046875 -8.1875 C 14.046875 -9.03125 13.820312 -9.816406 13.375 -10.546875 C 12.925781 -11.273438 12.335938 -11.863281 11.609375 -12.3125 C 10.878906 -12.757812 10.085938 -12.984375 9.234375 -12.984375 C 8.398438 -12.984375 7.613281 -12.757812 6.875 -12.3125 C 6.144531 -11.863281 5.554688 -11.273438 5.109375 -10.546875 C 4.660156 -9.816406 4.4375 -9.03125 4.4375 -8.1875 C 4.4375 -7.351562 4.660156 -6.566406 5.109375 -5.828125 C 5.554688 -5.097656 6.144531 -4.503906 6.875 -4.046875 C 7.613281 -3.585938 8.398438 -3.359375 9.234375 -3.359375 C 10.085938 -3.359375 10.878906 -3.585938 11.609375 -4.046875 C 12.335938 -4.503906 12.925781 -5.097656 13.375 -5.828125 C 13.820312 -6.566406 14.046875 -7.351562 14.046875 -8.1875 Z M 17.640625 -8.15625 C 17.640625 -7.039062 17.414062 -5.972656 16.96875 -4.953125 C 16.519531 -3.941406 15.90625 -3.046875 15.125 -2.265625 C 14.351562 -1.492188 13.460938 -0.882812 12.453125 -0.4375 C 11.441406 0.0078125 10.367188 0.234375 9.234375 0.234375 C 8.117188 0.234375 7.050781 0.0078125 6.03125 -0.4375 C 5.019531 -0.882812 4.125 -1.492188 3.34375 -2.265625 C 2.570312 -3.046875 1.960938 -3.941406 1.515625 -4.953125 C 1.066406 -5.972656 0.84375 -7.039062 0.84375 -8.15625 C 0.84375 -9.289062 1.066406 -10.363281 1.515625 -11.375 C 1.960938 -12.382812 2.570312 -13.273438 3.34375 -14.046875 C 4.125 -14.828125 5.019531 -15.441406 6.03125 -15.890625 C 7.050781 -16.335938 8.117188 -16.5625 9.234375 -16.5625 C 10.367188 -16.5625 11.441406 -16.335938 12.453125 -15.890625 C 13.460938 -15.441406 14.351562 -14.828125 15.125 -14.046875 C 15.90625 -13.273438 16.519531 -12.382812 16.96875 -11.375 C 17.414062 -10.363281 17.640625 -9.289062 17.640625 -8.15625 Z M 17.640625 -8.15625 "/></g></g></g><g fill="#545454" fill-opacity="1"><g transform="translate(691.324923, 849.981003)"><g><path d="M 5.046875 -5.828125 L 5.046875 0 L 1.4375 0 L 1.4375 -16.3125 L 7.5625 -16.3125 C 8.4375 -16.3125 9.253906 -16.09375 10.015625 -15.65625 C 10.773438 -15.21875 11.382812 -14.601562 11.84375 -13.8125 C 12.3125 -13.03125 12.546875 -12.125 12.546875 -11.09375 C 12.546875 -10.175781 12.378906 -9.363281 12.046875 -8.65625 C 11.710938 -7.957031 11.265625 -7.382812 10.703125 -6.9375 C 10.140625 -6.488281 9.515625 -6.175781 8.828125 -6 L 13.515625 0 L 8.953125 0 L 5.0625 -5.828125 Z M 6.953125 -13.484375 L 5.046875 -13.484375 L 5.046875 -8.65625 L 6.953125 -8.65625 C 7.484375 -8.65625 7.976562 -8.863281 8.4375 -9.28125 C 8.894531 -9.695312 9.125 -10.300781 9.125 -11.09375 C 9.125 -11.84375 8.894531 -12.425781 8.4375 -12.84375 C 7.976562 -13.269531 7.484375 -13.484375 6.953125 -13.484375 Z M 6.953125 -13.484375 "/></g></g></g><g fill="#545454" fill-opacity="1"><g transform="translate(717.508934, 849.981003)"><g><path d="M 4.984375 -3.3125 L 6.078125 -3.3125 C 7.003906 -3.3125 7.8125 -3.523438 8.5 -3.953125 C 9.195312 -4.390625 9.742188 -4.972656 10.140625 -5.703125 C 10.535156 -6.441406 10.734375 -7.257812 10.734375 -8.15625 C 10.734375 -9.070312 10.535156 -9.894531 10.140625 -10.625 C 9.742188 -11.351562 9.195312 -11.925781 8.5 -12.34375 C 7.8125 -12.769531 7.003906 -12.984375 6.078125 -12.984375 L 4.984375 -12.984375 Z M 1.4375 -16.3125 L 6.28125 -16.3125 C 7.4375 -16.3125 8.503906 -16.101562 9.484375 -15.6875 C 10.472656 -15.28125 11.332031 -14.707031 12.0625 -13.96875 C 12.800781 -13.226562 13.375 -12.363281 13.78125 -11.375 C 14.195312 -10.382812 14.40625 -9.3125 14.40625 -8.15625 C 14.40625 -7.007812 14.195312 -5.9375 13.78125 -4.9375 C 13.375 -3.945312 12.804688 -3.082031 12.078125 -2.34375 C 11.347656 -1.613281 10.488281 -1.039062 9.5 -0.625 C 8.507812 -0.207031 7.4375 0 6.28125 0 L 1.4375 0 Z M 1.4375 -16.3125 "/></g></g></g><g fill="#545454" fill-opacity="1"><g transform="translate(745.708959, 849.981003)"><g><path d="M 1.25 -1.84375 C 1.25 -2.4375 1.453125 -2.9375 1.859375 -3.34375 C 2.265625 -3.75 2.765625 -3.953125 3.359375 -3.953125 C 3.929688 -3.953125 4.425781 -3.75 4.84375 -3.34375 C 5.257812 -2.9375 5.46875 -2.4375 5.46875 -1.84375 C 5.46875 -1.269531 5.257812 -0.78125 4.84375 -0.375 C 4.425781 0.0273438 3.929688 0.234375 3.359375 0.234375 C 2.765625 0.234375 2.265625 0.0273438 1.859375 -0.375 C 1.453125 -0.78125 1.25 -1.269531 1.25 -1.84375 Z M 1.25 -1.84375 "/></g></g></g><g fill="#545454" fill-opacity="1"><g transform="translate(765.388996, 849.981003)"><g/></g></g><g fill="#545454" fill-opacity="1"><g transform="translate(784.348993, 849.981003)"><g><path d="M 9.3125 -4.78125 C 9.3125 -5.300781 9.113281 -5.757812 8.71875 -6.15625 C 8.332031 -6.550781 7.863281 -6.75 7.3125 -6.75 L 5.046875 -6.75 L 5.046875 -2.8125 L 7.3125 -2.8125 C 7.863281 -2.8125 8.332031 -3 8.71875 -3.375 C 9.113281 -3.757812 9.3125 -4.226562 9.3125 -4.78125 Z M 8.1875 -11.59375 C 8.1875 -12.125 8 -12.570312 7.625 -12.9375 C 7.25 -13.300781 6.800781 -13.484375 6.28125 -13.484375 L 5.046875 -13.484375 L 5.046875 -9.703125 L 6.28125 -9.703125 C 6.800781 -9.703125 7.25 -9.890625 7.625 -10.265625 C 8 -10.640625 8.1875 -11.082031 8.1875 -11.59375 Z M 12.984375 -4.6875 C 12.984375 -3.269531 12.550781 -2.132812 11.6875 -1.28125 C 10.820312 -0.425781 9.609375 0 8.046875 0 L 1.4375 0 L 1.4375 -16.3125 L 7.0625 -16.3125 C 7.988281 -16.3125 8.789062 -16.128906 9.46875 -15.765625 C 10.144531 -15.398438 10.671875 -14.910156 11.046875 -14.296875 C 11.421875 -13.679688 11.609375 -12.992188 11.609375 -12.234375 C 11.609375 -11.398438 11.4375 -10.679688 11.09375 -10.078125 C 10.75 -9.484375 10.273438 -9.050781 9.671875 -8.78125 C 10.585938 -8.570312 11.367188 -8.113281 12.015625 -7.40625 C 12.660156 -6.695312 12.984375 -5.789062 12.984375 -4.6875 Z M 12.984375 -4.6875 "/></g></g></g><g fill="#545454" fill-opacity="1"><g transform="translate(810.533005, 849.981003)"><g><path d="M 10.3125 -6.234375 L 8.25 -12.046875 L 6.1875 -6.234375 Z M 16.421875 0 L 12.546875 0 L 11.375 -3.28125 L 5.15625 -3.28125 L 3.984375 0 L 0.125 0 L 6.75 -16.3125 L 9.796875 -16.3125 Z M 16.421875 0 "/></g></g></g><g fill="#545454" fill-opacity="1"><g transform="translate(840.02905, 849.981003)"><g><path d="M 13.21875 -5.546875 L 17.234375 -5.546875 C 16.867188 -4.421875 16.289062 -3.421875 15.5 -2.546875 C 14.71875 -1.679688 13.789062 -1 12.71875 -0.5 C 11.644531 -0.0078125 10.484375 0.234375 9.234375 0.234375 C 8.085938 0.234375 7.003906 0.0195312 5.984375 -0.40625 C 4.972656 -0.84375 4.078125 -1.445312 3.296875 -2.21875 C 2.523438 -3 1.921875 -3.894531 1.484375 -4.90625 C 1.054688 -5.925781 0.84375 -7.007812 0.84375 -8.15625 C 0.84375 -9.3125 1.054688 -10.394531 1.484375 -11.40625 C 1.921875 -12.425781 2.523438 -13.320312 3.296875 -14.09375 C 4.078125 -14.875 4.972656 -15.476562 5.984375 -15.90625 C 7.003906 -16.34375 8.085938 -16.5625 9.234375 -16.5625 C 10.484375 -16.5625 11.640625 -16.3125 12.703125 -15.8125 C 13.765625 -15.320312 14.6875 -14.644531 15.46875 -13.78125 C 16.257812 -12.925781 16.835938 -11.941406 17.203125 -10.828125 L 13.203125 -10.828125 C 12.867188 -11.554688 12.332031 -12.132812 11.59375 -12.5625 C 10.851562 -12.988281 10.066406 -13.203125 9.234375 -13.203125 C 8.359375 -13.203125 7.5625 -12.972656 6.84375 -12.515625 C 6.125 -12.054688 5.550781 -11.445312 5.125 -10.6875 C 4.695312 -9.925781 4.484375 -9.082031 4.484375 -8.15625 C 4.484375 -7.226562 4.695312 -6.382812 5.125 -5.625 C 5.550781 -4.863281 6.125 -4.253906 6.84375 -3.796875 C 7.5625 -3.347656 8.359375 -3.125 9.234375 -3.125 C 10.085938 -3.125 10.878906 -3.347656 11.609375 -3.796875 C 12.347656 -4.242188 12.882812 -4.828125 13.21875 -5.546875 Z M 13.21875 -5.546875 "/></g></g></g><g fill="#545454" fill-opacity="1"><g transform="translate(870.82107, 849.981003)"><g><path d="M 5.046875 -7.296875 L 5.046875 0 L 1.4375 0 L 1.4375 -16.3125 L 5.046875 -16.3125 L 5.046875 -9.03125 L 10.203125 -16.3125 L 14.8125 -16.3125 L 8.546875 -8.15625 L 15.046875 0 L 10.203125 0 Z M 5.046875 -7.296875 "/></g></g></g><g fill="#545454" fill-opacity="1"><g transform="translate(898.589104, 849.981003)"><g><path d="M 10.890625 -3.265625 L 10.890625 0 L 1.4375 0 L 1.4375 -16.3125 L 10.890625 -16.3125 L 10.890625 -13.0625 L 5.046875 -13.0625 L 5.046875 -9.8125 L 10.65625 -9.8125 L 10.65625 -6.546875 L 5.046875 -6.546875 L 5.046875 -3.265625 Z M 10.890625 -3.265625 "/></g></g></g><g fill="#545454" fill-opacity="1"><g transform="translate(923.885122, 849.981003)"><g><path d="M 4.984375 -3.3125 L 6.078125 -3.3125 C 7.003906 -3.3125 7.8125 -3.523438 8.5 -3.953125 C 9.195312 -4.390625 9.742188 -4.972656 10.140625 -5.703125 C 10.535156 -6.441406 10.734375 -7.257812 10.734375 -8.15625 C 10.734375 -9.070312 10.535156 -9.894531 10.140625 -10.625 C 9.742188 -11.351562 9.195312 -11.925781 8.5 -12.34375 C 7.8125 -12.769531 7.003906 -12.984375 6.078125 -12.984375 L 4.984375 -12.984375 Z M 1.4375 -16.3125 L 6.28125 -16.3125 C 7.4375 -16.3125 8.503906 -16.101562 9.484375 -15.6875 C 10.472656 -15.28125 11.332031 -14.707031 12.0625 -13.96875 C 12.800781 -13.226562 13.375 -12.363281 13.78125 -11.375 C 14.195312 -10.382812 14.40625 -9.3125 14.40625 -8.15625 C 14.40625 -7.007812 14.195312 -5.9375 13.78125 -4.9375 C 13.375 -3.945312 12.804688 -3.082031 12.078125 -2.34375 C 11.347656 -1.613281 10.488281 -1.039062 9.5 -0.625 C 8.507812 -0.207031 7.4375 0 6.28125 0 L 1.4375 0 Z M 1.4375 -16.3125 "/></g></g></g><g fill="#545454" fill-opacity="1"><g transform="translate(952.085147, 849.981003)"><g><path d="M 1.25 -1.84375 C 1.25 -2.4375 1.453125 -2.9375 1.859375 -3.34375 C 2.265625 -3.75 2.765625 -3.953125 3.359375 -3.953125 C 3.929688 -3.953125 4.425781 -3.75 4.84375 -3.34375 C 5.257812 -2.9375 5.46875 -2.4375 5.46875 -1.84375 C 5.46875 -1.269531 5.257812 -0.78125 4.84375 -0.375 C 4.425781 0.0273438 3.929688 0.234375 3.359375 0.234375 C 2.765625 0.234375 2.265625 0.0273438 1.859375 -0.375 C 1.453125 -0.78125 1.25 -1.269531 1.25 -1.84375 Z M 1.25 -1.84375 "/></g></g></g></svg>