<svg xmlns="http://www.w3.org/2000/svg" xmlns:xlink="http://www.w3.org/1999/xlink" width="500" zoomAndPan="magnify" viewBox="30 100 315 175" height="500" preserveAspectRatio="xMidYMid meet" version="1.0"><defs><g/><clipPath id="46336163a3"><path d="M 236 2 L 275.558594 2 L 275.558594 54 L 236 54 Z M 236 2 " clip-rule="nonzero"/></clipPath><clipPath id="85b8adfc6b"><rect x="0" width="276" y="0" height="67"/></clipPath><clipPath id="4fa91d42be"><path d="M 97.832031 149.871094 L 146.582031 149.871094 L 146.582031 198.621094 L 97.832031 198.621094 Z M 97.832031 149.871094 " clip-rule="nonzero"/></clipPath><clipPath id="c90dea0526"><rect x="0" width="256" y="0" height="16"/></clipPath></defs><rect x="-37.5" width="450" fill="#ffffff" y="-37.499999" height="449.999989" fill-opacity="1"/><rect x="-37.5" width="450" fill="#ffffff" y="-37.499999" height="449.999989" fill-opacity="1"/><g transform="matrix(1, 0, 0, 1, 47, 146)"><g clip-path="url(#85b8adfc6b)"><g fill="#545454" fill-opacity="1"><g transform="translate(0.290054, 53.296328)"><g><path d="M 45.5 -50.46875 L 27.171875 -28.203125 L 48.3125 0 L 40.453125 0 L 22.859375 -23.375 L 13.4375 -11.796875 L 13.4375 0 L 6.859375 0 L 6.859375 -50.46875 L 13.4375 -50.46875 L 13.4375 -20.5625 L 37.734375 -50.46875 Z M 45.5 -50.46875 "/></g></g></g><g fill="#545454" fill-opacity="1"><g transform="translate(45.016809, 53.296328)"><g><path d="M 29.953125 1 C 26.984375 1 24.148438 0.5625 21.453125 -0.3125 C 18.753906 -1.195312 16.285156 -2.441406 14.046875 -4.046875 C 11.804688 -5.648438 9.859375 -7.546875 8.203125 -9.734375 C 6.546875 -11.929688 5.265625 -14.335938 4.359375 -16.953125 C 3.453125 -19.578125 3 -22.347656 3 -25.265625 C 3 -28.210938 3.453125 -31.003906 4.359375 -33.640625 C 5.265625 -36.273438 6.546875 -38.6875 8.203125 -40.875 C 9.859375 -43.0625 11.804688 -44.953125 14.046875 -46.546875 C 16.285156 -48.148438 18.753906 -49.390625 21.453125 -50.265625 C 24.148438 -51.140625 26.984375 -51.578125 29.953125 -51.578125 C 32.941406 -51.578125 35.785156 -51.140625 38.484375 -50.265625 C 41.179688 -49.390625 43.65625 -48.148438 45.90625 -46.546875 C 48.15625 -44.953125 50.109375 -43.0625 51.765625 -40.875 C 53.421875 -38.6875 54.703125 -36.273438 55.609375 -33.640625 C 56.515625 -31.003906 56.96875 -28.210938 56.96875 -25.265625 C 56.96875 -22.347656 56.515625 -19.578125 55.609375 -16.953125 C 54.703125 -14.335938 53.421875 -11.929688 51.765625 -9.734375 C 50.109375 -7.546875 48.15625 -5.648438 45.90625 -4.046875 C 43.65625 -2.441406 41.179688 -1.195312 38.484375 -0.3125 C 35.785156 0.5625 32.941406 1 29.953125 1 Z M 29.953125 -5.078125 C 32.765625 -5.078125 35.40625 -5.582031 37.875 -6.59375 C 40.351562 -7.613281 42.53125 -9.039062 44.40625 -10.875 C 46.289062 -12.707031 47.757812 -14.847656 48.8125 -17.296875 C 49.863281 -19.742188 50.390625 -22.398438 50.390625 -25.265625 C 50.390625 -28.140625 49.863281 -30.804688 48.8125 -33.265625 C 47.757812 -35.734375 46.289062 -37.878906 44.40625 -39.703125 C 42.53125 -41.535156 40.351562 -42.960938 37.875 -43.984375 C 35.40625 -45.015625 32.765625 -45.53125 29.953125 -45.53125 C 27.128906 -45.53125 24.484375 -45.015625 22.015625 -43.984375 C 19.554688 -42.960938 17.394531 -41.535156 15.53125 -39.703125 C 13.664062 -37.878906 12.207031 -35.734375 11.15625 -33.265625 C 10.101562 -30.804688 9.578125 -28.140625 9.578125 -25.265625 C 9.578125 -22.398438 10.101562 -19.742188 11.15625 -17.296875 C 12.207031 -14.847656 13.664062 -12.707031 15.53125 -10.875 C 17.394531 -9.039062 19.554688 -7.613281 22.015625 -6.59375 C 24.484375 -5.582031 27.128906 -5.078125 29.953125 -5.078125 Z M 29.953125 -5.078125 "/></g></g></g><g fill="#545454" fill-opacity="1"><g transform="translate(100.579972, 53.296328)"><g><path d="M 13.4375 0 L 6.859375 0 L 6.859375 -50.46875 L 12.546875 -50.46875 L 31.734375 -25.015625 L 31.765625 -25.015625 L 50.921875 -50.46875 L 56.671875 -50.46875 L 56.671875 0 L 50.09375 0 L 50.09375 -39.859375 L 32.65625 -16.59375 L 30.765625 -16.59375 L 13.4375 -39.890625 Z M 13.4375 0 "/></g></g></g><g fill="#545454" fill-opacity="1"><g transform="translate(159.705788, 53.296328)"><g><path d="M 13.4375 0 L 6.859375 0 L 6.859375 -50.46875 L 12.546875 -50.46875 L 31.734375 -25.015625 L 31.765625 -25.015625 L 50.921875 -50.46875 L 56.671875 -50.46875 L 56.671875 0 L 50.09375 0 L 50.09375 -39.859375 L 32.65625 -16.59375 L 30.765625 -16.59375 L 13.4375 -39.890625 Z M 13.4375 0 "/></g></g></g><g fill="#545454" fill-opacity="1"><g transform="translate(218.831605, 53.296328)"><g><path d="M 13.4375 0 L 6.859375 0 L 6.859375 -50.46875 L 13.4375 -50.46875 Z M 13.4375 0 "/></g></g></g><g clip-path="url(#46336163a3)"><g fill="#545454" fill-opacity="1"><g transform="translate(234.723127, 53.296328)"><g><path d="M 24.34375 0 L 17.78125 0 L 17.78125 -44.5625 L 1.8125 -44.5625 L 1.8125 -50.46875 L 40.34375 -50.46875 L 40.34375 -44.5625 L 24.34375 -44.5625 Z M 24.34375 0 "/></g></g></g></g></g></g><g clip-path="url(#4fa91d42be)"><path fill="#ffde59" d="M 146.324219 174.117188 C 146.324219 174.910156 146.285156 175.703125 146.207031 176.492188 C 146.128906 177.285156 146.015625 178.066406 145.859375 178.847656 C 145.703125 179.625 145.511719 180.394531 145.28125 181.15625 C 145.050781 181.914062 144.78125 182.660156 144.480469 183.394531 C 144.175781 184.128906 143.835938 184.847656 143.460938 185.546875 C 143.085938 186.246094 142.679688 186.925781 142.238281 187.585938 C 141.796875 188.246094 141.324219 188.882812 140.820312 189.5 C 140.316406 190.113281 139.785156 190.699219 139.222656 191.261719 C 138.660156 191.824219 138.074219 192.355469 137.460938 192.859375 C 136.847656 193.363281 136.210938 193.835938 135.550781 194.277344 C 134.890625 194.71875 134.207031 195.125 133.507812 195.5 C 132.808594 195.875 132.089844 196.214844 131.355469 196.515625 C 130.625 196.820312 129.875 197.089844 129.117188 197.320312 C 128.355469 197.550781 127.585938 197.742188 126.808594 197.898438 C 126.03125 198.050781 125.246094 198.167969 124.457031 198.246094 C 123.664062 198.324219 122.871094 198.363281 122.078125 198.363281 C 121.285156 198.363281 120.492188 198.324219 119.703125 198.246094 C 118.910156 198.167969 118.128906 198.050781 117.347656 197.898438 C 116.570312 197.742188 115.800781 197.550781 115.039062 197.320312 C 114.28125 197.089844 113.535156 196.820312 112.800781 196.515625 C 112.066406 196.214844 111.347656 195.875 110.648438 195.5 C 109.949219 195.125 109.269531 194.71875 108.609375 194.277344 C 107.949219 193.835938 107.3125 193.363281 106.695312 192.859375 C 106.082031 192.355469 105.496094 191.824219 104.933594 191.261719 C 104.371094 190.699219 103.839844 190.113281 103.335938 189.5 C 102.832031 188.882812 102.359375 188.246094 101.917969 187.585938 C 101.476562 186.925781 101.070312 186.246094 100.695312 185.546875 C 100.320312 184.847656 99.980469 184.128906 99.679688 183.394531 C 99.375 182.660156 99.105469 181.914062 98.875 181.15625 C 98.644531 180.394531 98.453125 179.625 98.296875 178.847656 C 98.144531 178.066406 98.027344 177.285156 97.949219 176.492188 C 97.871094 175.703125 97.832031 174.910156 97.832031 174.117188 C 97.832031 173.324219 97.871094 172.53125 97.949219 171.742188 C 98.027344 170.949219 98.144531 170.164062 98.296875 169.386719 C 98.453125 168.609375 98.644531 167.839844 98.875 167.078125 C 99.105469 166.320312 99.375 165.570312 99.679688 164.839844 C 99.980469 164.105469 100.320312 163.386719 100.695312 162.6875 C 101.070312 161.988281 101.476562 161.304688 101.917969 160.644531 C 102.359375 159.984375 102.832031 159.347656 103.335938 158.734375 C 103.839844 158.121094 104.371094 157.535156 104.933594 156.972656 C 105.496094 156.410156 106.082031 155.878906 106.695312 155.375 C 107.3125 154.871094 107.949219 154.398438 108.609375 153.957031 C 109.269531 153.515625 109.949219 153.109375 110.648438 152.734375 C 111.347656 152.359375 112.066406 152.019531 112.800781 151.714844 C 113.535156 151.414062 114.28125 151.144531 115.039062 150.914062 C 115.800781 150.683594 116.570312 150.492188 117.347656 150.335938 C 118.128906 150.183594 118.910156 150.066406 119.703125 149.988281 C 120.492188 149.910156 121.285156 149.871094 122.078125 149.871094 C 122.871094 149.871094 123.664062 149.910156 124.457031 149.988281 C 125.246094 150.066406 126.03125 150.183594 126.808594 150.335938 C 127.585938 150.492188 128.355469 150.683594 129.117188 150.914062 C 129.875 151.144531 130.625 151.414062 131.355469 151.714844 C 132.089844 152.019531 132.808594 152.359375 133.507812 152.734375 C 134.207031 153.109375 134.890625 153.515625 135.550781 153.957031 C 136.210938 154.398438 136.847656 154.871094 137.460938 155.375 C 138.074219 155.878906 138.660156 156.410156 139.222656 156.972656 C 139.785156 157.535156 140.316406 158.121094 140.820312 158.734375 C 141.324219 159.347656 141.796875 159.984375 142.238281 160.644531 C 142.679688 161.304688 143.085938 161.988281 143.460938 162.6875 C 143.835938 163.386719 144.175781 164.105469 144.480469 164.839844 C 144.78125 165.570312 145.050781 166.320312 145.28125 167.078125 C 145.511719 167.839844 145.703125 168.609375 145.859375 169.386719 C 146.015625 170.164062 146.128906 170.949219 146.207031 171.742188 C 146.285156 172.53125 146.324219 173.324219 146.324219 174.117188 Z M 146.324219 174.117188 " fill-opacity="1" fill-rule="nonzero"/></g><path fill="#545454" d="M 122.078125 196.050781 C 109.972656 196.050781 100.144531 186.222656 100.144531 174.117188 C 100.144531 162.011719 109.972656 152.183594 122.078125 152.183594 C 134.183594 152.183594 144.011719 162.011719 144.011719 174.117188 C 144.011719 186.222656 134.183594 196.050781 122.078125 196.050781 Z M 122.078125 152.726562 C 110.261719 152.726562 100.6875 162.300781 100.6875 174.117188 C 100.6875 185.933594 110.300781 195.507812 122.078125 195.507812 C 133.894531 195.507812 143.46875 185.898438 143.46875 174.117188 C 143.46875 162.300781 133.894531 152.726562 122.078125 152.726562 Z M 122.078125 152.726562 " fill-opacity="1" fill-rule="nonzero"/><g transform="matrix(1, 0, 0, 1, 63, 225)"><g clip-path="url(#c90dea0526)"><g fill="#545454" fill-opacity="1"><g transform="translate(0.998186, 12.282152)"><g><path d="M 3.28125 0 L 3.28125 -4.125 L 0.09375 -8.609375 L 2.375 -8.609375 L 4.234375 -5.640625 L 6.09375 -8.609375 L 8.359375 -8.609375 L 5.1875 -4.125 L 5.1875 0 Z M 3.28125 0 "/></g></g></g><g fill="#545454" fill-opacity="1"><g transform="translate(16.300196, 12.282152)"><g><path d="M 7.40625 -4.328125 C 7.40625 -4.773438 7.285156 -5.1875 7.046875 -5.5625 C 6.816406 -5.945312 6.507812 -6.257812 6.125 -6.5 C 5.738281 -6.738281 5.320312 -6.859375 4.875 -6.859375 C 4.4375 -6.859375 4.019531 -6.738281 3.625 -6.5 C 3.238281 -6.257812 2.925781 -5.945312 2.6875 -5.5625 C 2.457031 -5.1875 2.34375 -4.773438 2.34375 -4.328125 C 2.34375 -3.878906 2.457031 -3.460938 2.6875 -3.078125 C 2.925781 -2.691406 3.238281 -2.378906 3.625 -2.140625 C 4.019531 -1.898438 4.4375 -1.78125 4.875 -1.78125 C 5.320312 -1.78125 5.738281 -1.898438 6.125 -2.140625 C 6.507812 -2.378906 6.816406 -2.691406 7.046875 -3.078125 C 7.285156 -3.460938 7.40625 -3.878906 7.40625 -4.328125 Z M 9.3125 -4.3125 C 9.3125 -3.71875 9.191406 -3.148438 8.953125 -2.609375 C 8.722656 -2.078125 8.398438 -1.601562 7.984375 -1.1875 C 7.578125 -0.78125 7.109375 -0.457031 6.578125 -0.21875 C 6.046875 0.0078125 5.476562 0.125 4.875 0.125 C 4.28125 0.125 3.710938 0.0078125 3.171875 -0.21875 C 2.640625 -0.457031 2.171875 -0.78125 1.765625 -1.1875 C 1.359375 -1.601562 1.035156 -2.078125 0.796875 -2.609375 C 0.554688 -3.148438 0.4375 -3.71875 0.4375 -4.3125 C 0.4375 -4.90625 0.554688 -5.46875 0.796875 -6 C 1.035156 -6.539062 1.359375 -7.015625 1.765625 -7.421875 C 2.171875 -7.828125 2.640625 -8.148438 3.171875 -8.390625 C 3.710938 -8.628906 4.28125 -8.75 4.875 -8.75 C 5.476562 -8.75 6.046875 -8.628906 6.578125 -8.390625 C 7.109375 -8.148438 7.578125 -7.828125 7.984375 -7.421875 C 8.398438 -7.015625 8.722656 -6.539062 8.953125 -6 C 9.191406 -5.46875 9.3125 -4.90625 9.3125 -4.3125 Z M 9.3125 -4.3125 "/></g></g></g><g fill="#545454" fill-opacity="1"><g transform="translate(32.894266, 12.282152)"><g><path d="M 5.796875 -8.609375 L 7.6875 -8.609375 L 7.6875 -3.359375 C 7.6875 -2.210938 7.375 -1.34375 6.75 -0.75 C 6.125 -0.164062 5.25 0.125 4.125 0.125 C 3.007812 0.125 2.132812 -0.164062 1.5 -0.75 C 0.875 -1.34375 0.5625 -2.210938 0.5625 -3.359375 L 0.5625 -8.609375 L 2.46875 -8.609375 L 2.46875 -3.640625 C 2.46875 -3.046875 2.582031 -2.585938 2.8125 -2.265625 C 3.050781 -1.941406 3.488281 -1.78125 4.125 -1.78125 C 4.78125 -1.78125 5.222656 -1.941406 5.453125 -2.265625 C 5.679688 -2.585938 5.796875 -3.046875 5.796875 -3.640625 Z M 5.796875 -8.609375 "/></g></g></g><g fill="#545454" fill-opacity="1"><g transform="translate(47.993604, 12.282152)"><g><path d="M 2.65625 -3.078125 L 2.65625 0 L 0.765625 0 L 0.765625 -8.609375 L 3.984375 -8.609375 C 4.453125 -8.609375 4.882812 -8.492188 5.28125 -8.265625 C 5.6875 -8.035156 6.007812 -7.710938 6.25 -7.296875 C 6.5 -6.878906 6.625 -6.398438 6.625 -5.859375 C 6.625 -5.367188 6.535156 -4.9375 6.359375 -4.5625 C 6.179688 -4.195312 5.941406 -3.894531 5.640625 -3.65625 C 5.347656 -3.425781 5.019531 -3.265625 4.65625 -3.171875 L 7.140625 0 L 4.734375 0 L 2.671875 -3.078125 Z M 3.671875 -7.125 L 2.65625 -7.125 L 2.65625 -4.578125 L 3.671875 -4.578125 C 3.953125 -4.578125 4.210938 -4.6875 4.453125 -4.90625 C 4.691406 -5.125 4.8125 -5.441406 4.8125 -5.859375 C 4.8125 -6.253906 4.691406 -6.5625 4.453125 -6.78125 C 4.210938 -7.007812 3.953125 -7.125 3.671875 -7.125 Z M 3.671875 -7.125 "/></g></g></g><g fill="#545454" fill-opacity="1"><g transform="translate(61.813549, 12.282152)"><g/></g></g><g fill="#545454" fill-opacity="1"><g transform="translate(71.820654, 12.282152)"><g><path d="M 11.5 -8.609375 L 9.828125 0 L 7.578125 0 L 5.796875 -6.046875 L 3.984375 0 L 1.734375 0 L 0.0625 -8.609375 L 2.15625 -8.609375 L 3.171875 -2.671875 L 4.859375 -8.609375 L 6.71875 -8.609375 L 8.40625 -2.671875 L 9.421875 -8.609375 Z M 11.5 -8.609375 "/></g></g></g><g fill="#545454" fill-opacity="1"><g transform="translate(90.226143, 12.282152)"><g><path d="M 7.40625 -4.328125 C 7.40625 -4.773438 7.285156 -5.1875 7.046875 -5.5625 C 6.816406 -5.945312 6.507812 -6.257812 6.125 -6.5 C 5.738281 -6.738281 5.320312 -6.859375 4.875 -6.859375 C 4.4375 -6.859375 4.019531 -6.738281 3.625 -6.5 C 3.238281 -6.257812 2.925781 -5.945312 2.6875 -5.5625 C 2.457031 -5.1875 2.34375 -4.773438 2.34375 -4.328125 C 2.34375 -3.878906 2.457031 -3.460938 2.6875 -3.078125 C 2.925781 -2.691406 3.238281 -2.378906 3.625 -2.140625 C 4.019531 -1.898438 4.4375 -1.78125 4.875 -1.78125 C 5.320312 -1.78125 5.738281 -1.898438 6.125 -2.140625 C 6.507812 -2.378906 6.816406 -2.691406 7.046875 -3.078125 C 7.285156 -3.460938 7.40625 -3.878906 7.40625 -4.328125 Z M 9.3125 -4.3125 C 9.3125 -3.71875 9.191406 -3.148438 8.953125 -2.609375 C 8.722656 -2.078125 8.398438 -1.601562 7.984375 -1.1875 C 7.578125 -0.78125 7.109375 -0.457031 6.578125 -0.21875 C 6.046875 0.0078125 5.476562 0.125 4.875 0.125 C 4.28125 0.125 3.710938 0.0078125 3.171875 -0.21875 C 2.640625 -0.457031 2.171875 -0.78125 1.765625 -1.1875 C 1.359375 -1.601562 1.035156 -2.078125 0.796875 -2.609375 C 0.554688 -3.148438 0.4375 -3.71875 0.4375 -4.3125 C 0.4375 -4.90625 0.554688 -5.46875 0.796875 -6 C 1.035156 -6.539062 1.359375 -7.015625 1.765625 -7.421875 C 2.171875 -7.828125 2.640625 -8.148438 3.171875 -8.390625 C 3.710938 -8.628906 4.28125 -8.75 4.875 -8.75 C 5.476562 -8.75 6.046875 -8.628906 6.578125 -8.390625 C 7.109375 -8.148438 7.578125 -7.828125 7.984375 -7.421875 C 8.398438 -7.015625 8.722656 -6.539062 8.953125 -6 C 9.191406 -5.46875 9.3125 -4.90625 9.3125 -4.3125 Z M 9.3125 -4.3125 "/></g></g></g><g fill="#545454" fill-opacity="1"><g transform="translate(106.820213, 12.282152)"><g><path d="M 2.65625 -3.078125 L 2.65625 0 L 0.765625 0 L 0.765625 -8.609375 L 3.984375 -8.609375 C 4.453125 -8.609375 4.882812 -8.492188 5.28125 -8.265625 C 5.6875 -8.035156 6.007812 -7.710938 6.25 -7.296875 C 6.5 -6.878906 6.625 -6.398438 6.625 -5.859375 C 6.625 -5.367188 6.535156 -4.9375 6.359375 -4.5625 C 6.179688 -4.195312 5.941406 -3.894531 5.640625 -3.65625 C 5.347656 -3.425781 5.019531 -3.265625 4.65625 -3.171875 L 7.140625 0 L 4.734375 0 L 2.671875 -3.078125 Z M 3.671875 -7.125 L 2.65625 -7.125 L 2.65625 -4.578125 L 3.671875 -4.578125 C 3.953125 -4.578125 4.210938 -4.6875 4.453125 -4.90625 C 4.691406 -5.125 4.8125 -5.441406 4.8125 -5.859375 C 4.8125 -6.253906 4.691406 -6.5625 4.453125 -6.78125 C 4.210938 -7.007812 3.953125 -7.125 3.671875 -7.125 Z M 3.671875 -7.125 "/></g></g></g><g fill="#545454" fill-opacity="1"><g transform="translate(120.640152, 12.282152)"><g><path d="M 2.640625 -1.75 L 3.203125 -1.75 C 3.691406 -1.75 4.117188 -1.863281 4.484375 -2.09375 C 4.859375 -2.320312 5.148438 -2.628906 5.359375 -3.015625 C 5.566406 -3.398438 5.671875 -3.832031 5.671875 -4.3125 C 5.671875 -4.789062 5.566406 -5.222656 5.359375 -5.609375 C 5.148438 -5.992188 4.859375 -6.296875 4.484375 -6.515625 C 4.117188 -6.742188 3.691406 -6.859375 3.203125 -6.859375 L 2.640625 -6.859375 Z M 0.765625 -8.609375 L 3.3125 -8.609375 C 3.925781 -8.609375 4.492188 -8.5 5.015625 -8.28125 C 5.535156 -8.0625 5.988281 -7.757812 6.375 -7.375 C 6.757812 -6.988281 7.0625 -6.53125 7.28125 -6 C 7.5 -5.476562 7.609375 -4.914062 7.609375 -4.3125 C 7.609375 -3.695312 7.5 -3.128906 7.28125 -2.609375 C 7.0625 -2.085938 6.757812 -1.628906 6.375 -1.234375 C 5.988281 -0.847656 5.535156 -0.546875 5.015625 -0.328125 C 4.492188 -0.109375 3.925781 0 3.3125 0 L 0.765625 0 Z M 0.765625 -8.609375 "/></g></g></g><g fill="#545454" fill-opacity="1"><g transform="translate(135.524145, 12.282152)"><g><path d="M 0.65625 -0.96875 C 0.65625 -1.28125 0.765625 -1.546875 0.984375 -1.765625 C 1.203125 -1.984375 1.46875 -2.09375 1.78125 -2.09375 C 2.082031 -2.09375 2.34375 -1.984375 2.5625 -1.765625 C 2.78125 -1.546875 2.890625 -1.28125 2.890625 -0.96875 C 2.890625 -0.664062 2.78125 -0.40625 2.5625 -0.1875 C 2.34375 0.0195312 2.082031 0.125 1.78125 0.125 C 1.46875 0.125 1.203125 0.0195312 0.984375 -0.1875 C 0.765625 -0.40625 0.65625 -0.664062 0.65625 -0.96875 Z M 0.65625 -0.96875 "/></g></g></g><g fill="#545454" fill-opacity="1"><g transform="translate(145.911281, 12.282152)"><g/></g></g><g fill="#545454" fill-opacity="1"><g transform="translate(155.918381, 12.282152)"><g><path d="M 4.921875 -2.515625 C 4.921875 -2.796875 4.816406 -3.039062 4.609375 -3.25 C 4.398438 -3.457031 4.148438 -3.5625 3.859375 -3.5625 L 2.65625 -3.5625 L 2.65625 -1.484375 L 3.859375 -1.484375 C 4.148438 -1.484375 4.398438 -1.582031 4.609375 -1.78125 C 4.816406 -1.988281 4.921875 -2.234375 4.921875 -2.515625 Z M 4.328125 -6.125 C 4.328125 -6.394531 4.222656 -6.628906 4.015625 -6.828125 C 3.816406 -7.023438 3.582031 -7.125 3.3125 -7.125 L 2.65625 -7.125 L 2.65625 -5.125 L 3.3125 -5.125 C 3.582031 -5.125 3.816406 -5.222656 4.015625 -5.421875 C 4.222656 -5.617188 4.328125 -5.851562 4.328125 -6.125 Z M 6.859375 -2.46875 C 6.859375 -1.726562 6.628906 -1.128906 6.171875 -0.671875 C 5.710938 -0.222656 5.070312 0 4.25 0 L 0.765625 0 L 0.765625 -8.609375 L 3.71875 -8.609375 C 4.207031 -8.609375 4.628906 -8.507812 4.984375 -8.3125 C 5.347656 -8.125 5.628906 -7.867188 5.828125 -7.546875 C 6.035156 -7.222656 6.140625 -6.863281 6.140625 -6.46875 C 6.140625 -6.019531 6.046875 -5.640625 5.859375 -5.328125 C 5.679688 -5.015625 5.429688 -4.785156 5.109375 -4.640625 C 5.585938 -4.523438 6 -4.28125 6.34375 -3.90625 C 6.6875 -3.53125 6.859375 -3.050781 6.859375 -2.46875 Z M 6.859375 -2.46875 "/></g></g></g><g fill="#545454" fill-opacity="1"><g transform="translate(169.73832, 12.282152)"><g><path d="M 5.453125 -3.296875 L 4.359375 -6.359375 L 3.265625 -3.296875 Z M 8.671875 0 L 6.625 0 L 6 -1.734375 L 2.71875 -1.734375 L 2.109375 0 L 0.0625 0 L 3.5625 -8.609375 L 5.171875 -8.609375 Z M 8.671875 0 "/></g></g></g><g fill="#545454" fill-opacity="1"><g transform="translate(185.306353, 12.282152)"><g><path d="M 6.984375 -2.921875 L 9.09375 -2.921875 C 8.90625 -2.335938 8.601562 -1.8125 8.1875 -1.34375 C 7.769531 -0.882812 7.273438 -0.523438 6.703125 -0.265625 C 6.140625 -0.00390625 5.53125 0.125 4.875 0.125 C 4.269531 0.125 3.695312 0.0078125 3.15625 -0.21875 C 2.625 -0.445312 2.148438 -0.765625 1.734375 -1.171875 C 1.328125 -1.578125 1.007812 -2.046875 0.78125 -2.578125 C 0.550781 -3.117188 0.4375 -3.695312 0.4375 -4.3125 C 0.4375 -4.914062 0.550781 -5.484375 0.78125 -6.015625 C 1.007812 -6.554688 1.328125 -7.03125 1.734375 -7.4375 C 2.148438 -7.851562 2.625 -8.175781 3.15625 -8.40625 C 3.695312 -8.632812 4.269531 -8.75 4.875 -8.75 C 5.53125 -8.75 6.140625 -8.613281 6.703125 -8.34375 C 7.265625 -8.082031 7.753906 -7.726562 8.171875 -7.28125 C 8.585938 -6.832031 8.890625 -6.3125 9.078125 -5.71875 L 6.96875 -5.71875 C 6.789062 -6.101562 6.503906 -6.40625 6.109375 -6.625 C 5.722656 -6.851562 5.3125 -6.96875 4.875 -6.96875 C 4.414062 -6.96875 3.992188 -6.847656 3.609375 -6.609375 C 3.234375 -6.367188 2.929688 -6.046875 2.703125 -5.640625 C 2.484375 -5.242188 2.375 -4.800781 2.375 -4.3125 C 2.375 -3.820312 2.484375 -3.375 2.703125 -2.96875 C 2.929688 -2.570312 3.234375 -2.25 3.609375 -2 C 3.992188 -1.757812 4.414062 -1.640625 4.875 -1.640625 C 5.320312 -1.640625 5.738281 -1.757812 6.125 -2 C 6.519531 -2.238281 6.804688 -2.546875 6.984375 -2.921875 Z M 6.984375 -2.921875 "/></g></g></g><g fill="#545454" fill-opacity="1"><g transform="translate(201.558402, 12.282152)"><g><path d="M 2.65625 -3.859375 L 2.65625 0 L 0.765625 0 L 0.765625 -8.609375 L 2.65625 -8.609375 L 2.65625 -4.765625 L 5.390625 -8.609375 L 7.8125 -8.609375 L 4.515625 -4.3125 L 7.9375 0 L 5.390625 0 Z M 2.65625 -3.859375 "/></g></g></g><g fill="#545454" fill-opacity="1"><g transform="translate(216.21439, 12.282152)"><g><path d="M 5.75 -1.71875 L 5.75 0 L 0.765625 0 L 0.765625 -8.609375 L 5.75 -8.609375 L 5.75 -6.890625 L 2.65625 -6.890625 L 2.65625 -5.1875 L 5.625 -5.1875 L 5.625 -3.453125 L 2.65625 -3.453125 L 2.65625 -1.71875 Z M 5.75 -1.71875 "/></g></g></g><g fill="#545454" fill-opacity="1"><g transform="translate(229.565645, 12.282152)"><g><path d="M 2.640625 -1.75 L 3.203125 -1.75 C 3.691406 -1.75 4.117188 -1.863281 4.484375 -2.09375 C 4.859375 -2.320312 5.148438 -2.628906 5.359375 -3.015625 C 5.566406 -3.398438 5.671875 -3.832031 5.671875 -4.3125 C 5.671875 -4.789062 5.566406 -5.222656 5.359375 -5.609375 C 5.148438 -5.992188 4.859375 -6.296875 4.484375 -6.515625 C 4.117188 -6.742188 3.691406 -6.859375 3.203125 -6.859375 L 2.640625 -6.859375 Z M 0.765625 -8.609375 L 3.3125 -8.609375 C 3.925781 -8.609375 4.492188 -8.5 5.015625 -8.28125 C 5.535156 -8.0625 5.988281 -7.757812 6.375 -7.375 C 6.757812 -6.988281 7.0625 -6.53125 7.28125 -6 C 7.5 -5.476562 7.609375 -4.914062 7.609375 -4.3125 C 7.609375 -3.695312 7.5 -3.128906 7.28125 -2.609375 C 7.0625 -2.085938 6.757812 -1.628906 6.375 -1.234375 C 5.988281 -0.847656 5.535156 -0.546875 5.015625 -0.328125 C 4.492188 -0.109375 3.925781 0 3.3125 0 L 0.765625 0 Z M 0.765625 -8.609375 "/></g></g></g><g fill="#545454" fill-opacity="1"><g transform="translate(244.449638, 12.282152)"><g><path d="M 0.65625 -0.96875 C 0.65625 -1.28125 0.765625 -1.546875 0.984375 -1.765625 C 1.203125 -1.984375 1.46875 -2.09375 1.78125 -2.09375 C 2.082031 -2.09375 2.34375 -1.984375 2.5625 -1.765625 C 2.78125 -1.546875 2.890625 -1.28125 2.890625 -0.96875 C 2.890625 -0.664062 2.78125 -0.40625 2.5625 -0.1875 C 2.34375 0.0195312 2.082031 0.125 1.78125 0.125 C 1.46875 0.125 1.203125 0.0195312 0.984375 -0.1875 C 0.765625 -0.40625 0.65625 -0.664062 0.65625 -0.96875 Z M 0.65625 -0.96875 "/></g></g></g></g></g></svg>